<svg width="20" height="20" viewBox="0 0 20 20" fill="none" xmlns="http://www.w3.org/2000/svg">
<g id="work_outline_24px">
<path id="icon/action/work_outline_24px" fill-rule="evenodd" clip-rule="evenodd" d="M18.3332 7.08334C18.3332 6.15834 17.5915 5.41668 16.6665 5.41668H13.3332V3.75001C13.3332 2.82501 12.5915 2.08334 11.6665 2.08334H8.33317C7.40817 2.08334 6.6665 2.82501 6.6665 3.75001V5.41668H3.33317C2.40817 5.41668 1.67484 6.15834 1.67484 7.08334L1.6665 16.25C1.6665 17.175 2.40817 17.9167 3.33317 17.9167H16.6665C17.5915 17.9167 18.3332 17.175 18.3332 16.25V7.08334ZM11.6665 5.41668V3.75001H8.33317V5.41668H11.6665ZM3.33317 7.08334V16.25H16.6665V7.08334H3.33317Z" fill="#4CB652"/>
</g>
</svg>
