<svg width="37" height="36" viewBox="0 0 37 36" fill="none" xmlns="http://www.w3.org/2000/svg">
<rect x="5" y="9.00006" width="27" height="22.5" rx="2" stroke="#05A9C5" stroke-width="2"/>
<path d="M5 13.0001C5 11.1144 5 10.1716 5.58579 9.58585C6.17157 9.00006 7.11438 9.00006 9 9.00006H28C29.8856 9.00006 30.8284 9.00006 31.4142 9.58585C32 10.1716 32 11.1144 32 13.0001V15.0001H5V13.0001Z" fill="#05A9C5"/>
<path d="M11 4.50006L11 9.00006" stroke="#05A9C5" stroke-width="2" stroke-linecap="round"/>
<path d="M26 4.50006L26 9.00006" stroke="#05A9C5" stroke-width="2" stroke-linecap="round"/>
<rect x="11" y="18.0001" width="6" height="3" rx="0.5" fill="#05A9C5"/>
<rect x="11" y="24.0001" width="6" height="3" rx="0.5" fill="#05A9C5"/>
<rect x="20" y="18.0001" width="6" height="3" rx="0.5" fill="#05A9C5"/>
<rect x="20" y="24.0001" width="6" height="3" rx="0.5" fill="#05A9C5"/>
</svg>
