<svg width="24" height="26" viewBox="0 0 24 26" fill="white" xmlns="http://www.w3.org/2000/svg">
<path d="M19.2625 3.5875C19.1625 3.5875 19.0625 3.5625 18.975 3.5125C16.575 2.275 14.5 1.75 12.0125 1.75C9.53748 1.75 7.18748 2.3375 5.04998 3.5125C4.74998 3.675 4.37498 3.5625 4.19998 3.2625C4.03748 2.9625 4.14998 2.575 4.44998 2.4125C6.77498 1.15 9.32498 0.5 12.0125 0.5C14.675 0.5 17 1.0875 19.55 2.4C19.8625 2.5625 19.975 2.9375 19.8125 3.2375C19.7 3.4625 19.4875 3.5875 19.2625 3.5875ZM1.37498 10.15C1.24998 10.15 1.12498 10.1125 1.01248 10.0375C0.724981 9.8375 0.662481 9.45 0.862481 9.1625C2.09998 7.4125 3.67498 6.0375 5.54998 5.075C9.47498 3.05 14.5 3.0375 18.4375 5.0625C20.3125 6.025 21.8875 7.3875 23.125 9.125C23.325 9.4 23.2625 9.8 22.975 10C22.6875 10.2 22.3 10.1375 22.1 9.85C20.975 8.275 19.55 7.0375 17.8625 6.175C14.275 4.3375 9.68748 4.3375 6.11248 6.1875C4.41248 7.0625 2.98748 8.3125 1.86248 9.8875C1.76248 10.0625 1.57498 10.15 1.37498 10.15ZM9.18748 25.2375C9.02498 25.2375 8.86248 25.175 8.74998 25.05C7.66248 23.9625 7.07498 23.2625 6.23748 21.75C5.37498 20.2125 4.92498 18.3375 4.92498 16.325C4.92498 12.6125 8.09998 9.5875 12 9.5875C15.9 9.5875 19.075 12.6125 19.075 16.325C19.075 16.675 18.8 16.95 18.45 16.95C18.1 16.95 17.825 16.675 17.825 16.325C17.825 13.3 15.2125 10.8375 12 10.8375C8.78748 10.8375 6.17498 13.3 6.17498 16.325C6.17498 18.125 6.57498 19.7875 7.33748 21.1375C8.13748 22.575 8.68748 23.1875 9.64998 24.1625C9.88748 24.4125 9.88748 24.8 9.64998 25.05C9.51248 25.175 9.34998 25.2375 9.18748 25.2375ZM18.15 22.925C16.6625 22.925 15.35 22.55 14.275 21.8125C12.4125 20.55 11.3 18.5 11.3 16.325C11.3 15.975 11.575 15.7 11.925 15.7C12.275 15.7 12.55 15.975 12.55 16.325C12.55 18.0875 13.45 19.75 14.975 20.775C15.8625 21.375 16.9 21.6625 18.15 21.6625C18.45 21.6625 18.95 21.625 19.45 21.5375C19.7875 21.475 20.1125 21.7 20.175 22.05C20.2375 22.3875 20.0125 22.7125 19.6625 22.775C18.95 22.9125 18.325 22.925 18.15 22.925ZM15.6375 25.5C15.5875 25.5 15.525 25.4875 15.475 25.475C13.4875 24.925 12.1875 24.1875 10.825 22.85C9.07498 21.1125 8.11248 18.8 8.11248 16.325C8.11248 14.3 9.83748 12.65 11.9625 12.65C14.0875 12.65 15.8125 14.3 15.8125 16.325C15.8125 17.6625 16.975 18.75 18.4125 18.75C19.85 18.75 21.0125 17.6625 21.0125 16.325C21.0125 11.6125 16.95 7.7875 11.95 7.7875C8.39998 7.7875 5.14998 9.7625 3.68748 12.825C3.19998 13.8375 2.94998 15.025 2.94998 16.325C2.94998 17.3 3.03748 18.8375 3.78748 20.8375C3.91248 21.1625 3.74998 21.525 3.42498 21.6375C3.09998 21.7625 2.73748 21.5875 2.62498 21.275C2.01248 19.6375 1.71248 18.0125 1.71248 16.325C1.71248 14.825 1.99998 13.4625 2.56248 12.275C4.22498 8.7875 7.91248 6.525 11.95 6.525C17.6375 6.525 22.2625 10.9125 22.2625 16.3125C22.2625 18.3375 20.5375 19.9875 18.4125 19.9875C16.2875 19.9875 14.5625 18.3375 14.5625 16.3125C14.5625 14.975 13.4 13.8875 11.9625 13.8875C10.525 13.8875 9.36248 14.975 9.36248 16.3125C9.36248 18.45 10.1875 20.45 11.7 21.95C12.8875 23.125 14.025 23.775 15.7875 24.2625C16.125 24.35 16.3125 24.7 16.225 25.025C16.1625 25.3125 15.9 25.5 15.6375 25.5Z" />
</svg>
