<svg width="22" height="18" viewBox="0 0 22 18" fill="#1E1E1E" xmlns="http://www.w3.org/2000/svg">
<path d="M21.1716 9.58406C20.9894 9.34 16.5894 3.64062 11 3.64062C10.4694 3.6418 9.93999 3.69243 9.41875 3.79187C9.32845 3.80686 9.24205 3.83973 9.16462 3.88855C9.08719 3.93738 9.02029 4.00117 8.96785 4.07619C8.9154 4.15121 8.87846 4.23595 8.8592 4.32544C8.83994 4.41493 8.83875 4.50736 8.85568 4.59732C8.87262 4.68727 8.90735 4.77294 8.95784 4.84929C9.00833 4.92565 9.07356 4.99115 9.1497 5.04196C9.22584 5.09277 9.31136 5.12786 9.40124 5.14518C9.49112 5.1625 9.58356 5.16169 9.67313 5.14281C10.1105 5.05937 10.5547 5.01679 11 5.01562C15.0906 5.01562 18.6416 8.735 19.7347 10C19.0307 10.8142 18.2591 11.5674 17.4281 12.2516C17.3579 12.3087 17.2997 12.3792 17.2569 12.459C17.214 12.5387 17.1873 12.6261 17.1783 12.7162C17.1693 12.8063 17.1782 12.8973 17.2044 12.9839C17.2307 13.0706 17.2738 13.1512 17.3313 13.2211C17.3888 13.291 17.4595 13.3489 17.5394 13.3915C17.6194 13.434 17.7069 13.4603 17.797 13.4689C17.8872 13.4775 17.9781 13.4683 18.0646 13.4416C18.1511 13.415 18.2316 13.3715 18.3013 13.3137C19.3577 12.4519 20.3198 11.4805 21.1716 10.4159C21.2625 10.2963 21.3117 10.1502 21.3117 10C21.3117 9.84977 21.2625 9.70368 21.1716 9.58406Z" />
<path d="M16.6375 13.5372L13.6125 10.5122L10.4878 7.3875L7.7997 4.69938L4.21095 1.11063C4.1464 1.04698 4.06994 0.996663 3.98594 0.962561C3.90194 0.92846 3.81205 0.911236 3.7214 0.911875C3.53832 0.913164 3.36325 0.98713 3.2347 1.1175C3.17105 1.18205 3.12074 1.25851 3.08664 1.34251C3.05253 1.4265 3.03531 1.5164 3.03595 1.60705C3.03724 1.79013 3.1112 1.9652 3.24157 2.09375L6.16001 5.01219C4.11344 6.19057 2.30519 7.74116 0.82845 9.58406C0.737561 9.70368 0.688354 9.84977 0.688354 10C0.688354 10.1502 0.737561 10.2963 0.82845 10.4159C1.01064 10.66 5.41064 16.3594 11 16.3594C12.7811 16.3182 14.5202 15.8097 16.0428 14.8847L18.9063 17.7584C18.9701 17.8223 19.046 17.873 19.1294 17.9076C19.2129 17.9421 19.3023 17.9599 19.3927 17.9599C19.483 17.9599 19.5725 17.9421 19.6559 17.9076C19.7394 17.873 19.8152 17.8223 19.8791 17.7584C19.9429 17.6946 19.9936 17.6187 20.0282 17.5353C20.0628 17.4518 20.0805 17.3624 20.0805 17.272C20.0805 17.1817 20.0628 17.0922 20.0282 17.0088C19.9936 16.9253 19.9429 16.8495 19.8791 16.7856L16.6375 13.5372ZM9.90689 8.74875L12.2547 11.0966C12.1046 11.2678 11.921 11.4064 11.7152 11.5038C11.5094 11.6012 11.2858 11.6553 11.0582 11.6628C10.8306 11.6703 10.6039 11.631 10.3922 11.5473C10.1804 11.4637 9.98804 11.3374 9.82704 11.1764C9.66603 11.0154 9.53979 10.8231 9.45612 10.6113C9.37246 10.3995 9.33315 10.1728 9.34064 9.94527C9.34812 9.7177 9.40224 9.49408 9.49964 9.28827C9.59704 9.08246 9.73565 8.89883 9.90689 8.74875ZM11 14.9844C6.90939 14.9844 3.35845 11.265 2.26532 10C3.64315 8.38193 5.30714 7.03139 7.17407 6.01594L8.93751 7.77594C8.63107 8.05153 8.38397 8.38663 8.21126 8.76083C8.03855 9.13503 7.94385 9.54048 7.93294 9.95247C7.92203 10.3645 7.99513 10.7743 8.14779 11.1572C8.30045 11.54 8.52947 11.8877 8.8209 12.1791C9.11232 12.4705 9.46003 12.6996 9.84285 12.8522C10.2257 13.0049 10.6356 13.078 11.0475 13.0671C11.4595 13.0562 11.865 12.9615 12.2392 12.7888C12.6134 12.616 12.9485 12.3689 13.2241 12.0625L15.0356 13.8741C13.8025 14.5711 12.4162 14.9525 11 14.9844Z" />
</svg>
