<svg width="37" height="36" viewBox="0 0 37 36" fill="none" xmlns="http://www.w3.org/2000/svg">
<path d="M24.25 8.00031C26.5573 8.00031 27.711 8.00031 28.5397 8.49598C28.8985 8.71057 29.2065 8.9863 29.4463 9.30745C30 10.0493 30 11.082 30 13.1474V27.118C30 29.8909 30 31.2774 29.0376 32.1389C28.0753 33.0003 26.5264 33.0003 23.4286 33.0003H13.5714C10.4736 33.0003 8.92473 33.0003 7.96236 32.1389C7 31.2774 7 29.8909 7 27.118V13.1474C7 11.082 7 10.0493 7.55374 9.30745C7.79346 8.9863 8.1015 8.71057 8.46027 8.49598C9.289 8.00031 10.4427 8.00031 12.75 8.00031" stroke="#05A9C5" stroke-width="2"/>
<path d="M14 7.50031C14 5.84345 15.3431 4.50031 17 4.50031H20C21.6569 4.50031 23 5.84345 23 7.50031C23 9.15716 21.6569 10.5003 20 10.5003H17C15.3431 10.5003 14 9.15716 14 7.50031Z" stroke="#05A9C5" stroke-width="2"/>
<path d="M14 18.0003L23 18.0003" stroke="#05A9C5" stroke-width="2" stroke-linecap="round"/>
<path d="M14 24.0003L20 24.0003" stroke="#05A9C5" stroke-width="2" stroke-linecap="round"/>
</svg>
