<svg width="37" height="36" viewBox="0 0 37 36" fill="none" xmlns="http://www.w3.org/2000/svg">
<g clip-path="url(#clip0_811_1314)">
<path d="M27.5 6.00031H24.5V17.8503L27.5 14.8503V6.00031Z" fill="#05A9C5"/>
<path d="M9.5 6.00031H6.5V30.0003H9.5V6.00031Z" fill="#05A9C5"/>
<path d="M18.5 6.00031H15.5V12.0003H18.5V6.00031Z" fill="#05A9C5"/>
<path d="M18.5 15.0003H15.5V21.0003H18.5V15.0003Z" fill="#05A9C5"/>
<path d="M18.5 24.0003H15.5V30.0003H18.5V24.0003Z" fill="#05A9C5"/>
<path d="M34.34 18.8853L32.615 17.1603C31.73 16.2753 30.305 16.2753 29.435 17.1603L21.5 25.0953V30.0003H26.405L34.34 22.0653C35.225 21.1803 35.225 19.7553 34.34 18.8853ZM25.37 27.6753H23.825V26.1303L29 20.9553L30.545 22.5003L25.37 27.6753Z" fill="#05A9C5"/>
</g>
<defs>
<clipPath id="clip0_811_1314">
<rect width="36" height="36" fill="white" transform="translate(0.5 0.000305176)"/>
</clipPath>
</defs>
</svg>
