<svg width="24" height="24" viewBox="0 0 24 24" fill="none" xmlns="http://www.w3.org/2000/svg">
<g id="notifications_active_24px">
<path id="icon/social/notifications_active_24px" fill-rule="evenodd" clip-rule="evenodd" d="M18.0003 15.75V10.75C18.0003 7.68 16.3703 5.11 13.5003 4.43V3.75C13.5003 2.92 12.8303 2.25 12.0003 2.25C11.1703 2.25 10.5003 2.92 10.5003 3.75V4.43C7.64027 5.11 6.00027 7.67 6.00027 10.75V15.75L4.00027 17.75V18.75H20.0003V17.75L18.0003 15.75ZM12.0003 21.75C13.1003 21.75 14.0003 20.85 14.0003 19.75H10.0003C10.0003 20.85 10.9003 21.75 12.0003 21.75ZM8.00027 16.75H16.0003V10.75C16.0003 8.27 14.4903 6.25 12.0003 6.25C9.51027 6.25 8.00027 8.27 8.00027 10.75V16.75ZM7.58027 3.83L6.15027 2.4C3.75027 4.23 2.17027 7.05 2.03027 10.25H4.03027C4.18027 7.6 5.54027 5.28 7.58027 3.83ZM21.9703 10.25H19.9703C19.8203 7.6 18.4503 5.28 16.4303 3.83L17.8503 2.4C20.2403 4.23 21.8203 7.05 21.9703 10.25Z" fill="#05A9C5"/>
</g>
</svg>
