<svg width="14" height="17" viewBox="0 0 14 17" fill="none" xmlns="http://www.w3.org/2000/svg">
<path d="M7.00004 16.3333C7.91671 16.3333 8.66671 15.5833 8.66671 14.6667H5.33337C5.33337 15.5833 6.08337 16.3333 7.00004 16.3333ZM12 11.3333V7.16668C12 4.60834 10.6417 2.46668 8.25004 1.90001V1.33334C8.25004 0.641677 7.69171 0.0833435 7.00004 0.0833435C6.30837 0.0833435 5.75004 0.641677 5.75004 1.33334V1.90001C3.36671 2.46668 2.00004 4.60001 2.00004 7.16668V11.3333L0.333374 13V13.8333H13.6667V13L12 11.3333ZM10.3334 12.1667H3.66671V7.16668C3.66671 5.10001 4.92504 3.41668 7.00004 3.41668C9.07504 3.41668 10.3334 5.10001 10.3334 7.16668V12.1667Z" fill="#424243"/>
</svg>
