<svg width="260" height="260" viewBox="0 0 260 260" fill="none" xmlns="http://www.w3.org/2000/svg">
<g filter="url(#filter0_d_306_678)">
<circle cx="130" cy="120" r="100" fill="url(#paint0_linear_306_678)"/>
</g>
<path d="M110.125 93.5V115.375" stroke="white" stroke-width="2" stroke-miterlimit="10" stroke-linecap="round"/>
<path d="M123.375 90.375V99.75" stroke="white" stroke-width="2" stroke-miterlimit="10" stroke-linecap="round"/>
<path d="M136.625 93.5V99.75" stroke="white" stroke-width="2" stroke-miterlimit="10" stroke-linecap="round"/>
<path d="M149.875 96.625V102.875" stroke="white" stroke-width="2" stroke-miterlimit="10" stroke-linecap="round"/>
<path d="M157.494 93.5C153.187 92.875 149.875 96 149.875 99.75V96.9375C149.875 93.8125 147.556 91 144.244 90.375C139.937 89.75 136.625 92.875 136.625 96.625V93.8125C136.625 90.6875 134.306 87.875 130.994 87.25C126.687 86.625 123.375 89.75 123.375 93.5V71.9375C123.375 68.8125 121.056 66 117.744 65.375C113.769 64.75 110.125 67.875 110.125 71.625V98.1875C110.125 93.5 105.819 90.0625 100.85 90.375C99.1937 90.375 97.8688 91 96.875 91.9375V116C96.875 131.938 109.794 146 126.688 146.625C127.681 146.625 128.675 146.625 129.338 146.625C148.55 146 163.125 130.688 163.125 112.563V112.25V100.063C163.125 96.9375 160.806 94.125 157.494 93.5Z" stroke="white" stroke-width="2" stroke-miterlimit="10" stroke-linecap="round"/>
<path d="M93.9105 180V170.13H98.1945C99.2771 170.13 100.112 170.401 100.7 170.942C101.288 171.483 101.582 172.239 101.582 173.21C101.582 174.181 101.288 174.941 100.7 175.492C100.112 176.033 99.2771 176.304 98.1945 176.304H95.7025V180H93.9105ZM95.7025 174.89H97.9145C99.2025 174.89 99.8465 174.33 99.8465 173.21C99.8465 172.099 99.2025 171.544 97.9145 171.544H95.7025V174.89ZM107.985 180.14C106.632 180.14 105.596 179.79 104.877 179.09C104.168 178.381 103.813 177.335 103.813 175.954V170.13H105.605V175.94C105.605 176.827 105.806 177.494 106.207 177.942C106.618 178.381 107.211 178.6 107.985 178.6C109.563 178.6 110.351 177.713 110.351 175.94V170.13H112.129V175.954C112.129 177.335 111.779 178.381 111.079 179.09C110.379 179.79 109.348 180.14 107.985 180.14ZM115.059 180V170.13H116.403L121.709 177.018V170.13H123.375V180H122.045L116.725 173.084V180H115.059ZM130.964 180.14C129.937 180.14 129.055 179.935 128.318 179.524C127.59 179.104 127.03 178.516 126.638 177.76C126.246 176.995 126.05 176.094 126.05 175.058C126.05 174.022 126.246 173.126 126.638 172.37C127.03 171.614 127.59 171.031 128.318 170.62C129.055 170.2 129.937 169.99 130.964 169.99C131.627 169.99 132.252 170.093 132.84 170.298C133.437 170.503 133.927 170.797 134.31 171.18L133.722 172.608C133.302 172.253 132.873 171.997 132.434 171.838C131.995 171.67 131.524 171.586 131.02 171.586C130.021 171.586 129.261 171.889 128.738 172.496C128.215 173.093 127.954 173.947 127.954 175.058C127.954 176.169 128.215 177.027 128.738 177.634C129.261 178.241 130.021 178.544 131.02 178.544C131.524 178.544 131.995 178.465 132.434 178.306C132.873 178.138 133.302 177.877 133.722 177.522L134.31 178.95C133.927 179.323 133.437 179.617 132.84 179.832C132.252 180.037 131.627 180.14 130.964 180.14ZM136.714 180V170.13H138.506V174.246H143.588V170.13H145.38V180H143.588V175.744H138.506V180H136.714ZM152.995 180V170.13H154.787V180H152.995ZM157.773 180V170.13H159.117L164.423 177.018V170.13H166.089V180H164.759L159.439 173.084V180H157.773Z" fill="white"/>
<defs>
<filter id="filter0_d_306_678" x="0" y="0" width="260" height="260" filterUnits="userSpaceOnUse" color-interpolation-filters="sRGB">
<feFlood flood-opacity="0" result="BackgroundImageFix"/>
<feColorMatrix in="SourceAlpha" type="matrix" values="0 0 0 0 0 0 0 0 0 0 0 0 0 0 0 0 0 0 127 0" result="hardAlpha"/>
<feOffset dy="10"/>
<feGaussianBlur stdDeviation="15"/>
<feComposite in2="hardAlpha" operator="out"/>
<feColorMatrix type="matrix" values="0 0 0 0 0.262745 0 0 0 0 0.388235 0 0 0 0 0.776471 0 0 0 0.4 0"/>
<feBlend mode="normal" in2="BackgroundImageFix" result="effect1_dropShadow_306_678"/>
<feBlend mode="normal" in="SourceGraphic" in2="effect1_dropShadow_306_678" result="shape"/>
</filter>
<linearGradient id="paint0_linear_306_678" x1="30" y1="108" x2="230" y2="108" gradientUnits="userSpaceOnUse">
<stop stop-color="#4363C6"/>
<stop offset="1" stop-color="#05A9C5"/>
</linearGradient>
</defs>
</svg>
