<svg width="42" height="40" viewBox="0 0 42 40" fill="none" xmlns="http://www.w3.org/2000/svg">
<path d="M13.125 15.0003V23.7503" stroke="white" stroke-width="2" stroke-miterlimit="10" stroke-linecap="round"/>
<path d="M18.375 13.7503V17.5003" stroke="white" stroke-width="2" stroke-miterlimit="10" stroke-linecap="round"/>
<path d="M23.625 15.0003V17.5003" stroke="white" stroke-width="2" stroke-miterlimit="10" stroke-linecap="round"/>
<path d="M28.875 16.2503V18.7503" stroke="white" stroke-width="2" stroke-miterlimit="10" stroke-linecap="round"/>
<path d="M31.8937 15.0003C30.1875 14.7503 28.875 16.0003 28.875 17.5003V16.3753C28.875 15.1253 27.9562 14.0003 26.6437 13.7503C24.9375 13.5003 23.625 14.7503 23.625 16.2503V15.1253C23.625 13.8753 22.7062 12.7503 21.3937 12.5003C19.6875 12.2503 18.375 13.5003 18.375 15.0003V6.37531C18.375 5.12531 17.4563 4.00031 16.1438 3.75031C14.5688 3.50031 13.125 4.75031 13.125 6.25031V16.8753C13.125 15.0003 11.4187 13.6253 9.45 13.7503C8.79375 13.7503 8.26875 14.0003 7.875 14.3753V24.0003C7.875 30.3753 12.9938 36.0003 19.6875 36.2503C20.0813 36.2503 20.475 36.2503 20.7375 36.2503C28.35 36.0003 34.125 29.8753 34.125 22.6253V22.5003V17.6253C34.125 16.3753 33.2062 15.2503 31.8937 15.0003Z" stroke="white" stroke-width="2" stroke-miterlimit="10" stroke-linecap="round"/>
</svg>
