<svg width="260" height="260" viewBox="0 0 260 260" fill="none" xmlns="http://www.w3.org/2000/svg">
<g filter="url(#filter0_d_449_487)">
<circle cx="130" cy="120" r="100" fill="url(#paint0_linear_449_487)"/>
</g>
<path d="M110.125 93.5V115.375" stroke="white" stroke-width="2" stroke-miterlimit="10" stroke-linecap="round"/>
<path d="M123.375 90.375V99.75" stroke="white" stroke-width="2" stroke-miterlimit="10" stroke-linecap="round"/>
<path d="M136.625 93.5V99.75" stroke="white" stroke-width="2" stroke-miterlimit="10" stroke-linecap="round"/>
<path d="M149.875 96.625V102.875" stroke="white" stroke-width="2" stroke-miterlimit="10" stroke-linecap="round"/>
<path d="M157.494 93.5C153.187 92.875 149.875 96 149.875 99.75V96.9375C149.875 93.8125 147.556 91 144.244 90.375C139.937 89.75 136.625 92.875 136.625 96.625V93.8125C136.625 90.6875 134.306 87.875 130.994 87.25C126.687 86.625 123.375 89.75 123.375 93.5V71.9375C123.375 68.8125 121.056 66 117.744 65.375C113.769 64.75 110.125 67.875 110.125 71.625V98.1875C110.125 93.5 105.819 90.0625 100.85 90.375C99.1937 90.375 97.8688 91 96.875 91.9375V116C96.875 131.938 109.794 146 126.688 146.625C127.681 146.625 128.675 146.625 129.338 146.625C148.55 146 163.125 130.688 163.125 112.563V112.25V100.063C163.125 96.9375 160.806 94.125 157.494 93.5Z" stroke="white" stroke-width="2" stroke-miterlimit="10" stroke-linecap="round"/>
<path d="M85.6838 180V170.13H89.9678C91.0505 170.13 91.8858 170.401 92.4738 170.942C93.0618 171.483 93.3558 172.239 93.3558 173.21C93.3558 174.181 93.0618 174.941 92.4738 175.492C91.8858 176.033 91.0505 176.304 89.9678 176.304H87.4758V180H85.6838ZM87.4758 174.89H89.6878C90.9758 174.89 91.6198 174.33 91.6198 173.21C91.6198 172.099 90.9758 171.544 89.6878 171.544H87.4758V174.89ZM99.7586 180.14C98.4053 180.14 97.3693 179.79 96.6506 179.09C95.9413 178.381 95.5866 177.335 95.5866 175.954V170.13H97.3786V175.94C97.3786 176.827 97.5793 177.494 97.9806 177.942C98.3913 178.381 98.984 178.6 99.7586 178.6C101.336 178.6 102.125 177.713 102.125 175.94V170.13H103.903V175.954C103.903 177.335 103.553 178.381 102.853 179.09C102.153 179.79 101.121 180.14 99.7586 180.14ZM106.833 180V170.13H108.177L113.483 177.018V170.13H115.149V180H113.819L108.499 173.084V180H106.833ZM122.737 180.14C121.711 180.14 120.829 179.935 120.091 179.524C119.363 179.104 118.803 178.516 118.411 177.76C118.019 176.995 117.823 176.094 117.823 175.058C117.823 174.022 118.019 173.126 118.411 172.37C118.803 171.614 119.363 171.031 120.091 170.62C120.829 170.2 121.711 169.99 122.737 169.99C123.4 169.99 124.025 170.093 124.613 170.298C125.211 170.503 125.701 170.797 126.083 171.18L125.495 172.608C125.075 172.253 124.646 171.997 124.207 171.838C123.769 171.67 123.297 171.586 122.793 171.586C121.795 171.586 121.034 171.889 120.511 172.496C119.989 173.093 119.727 173.947 119.727 175.058C119.727 176.169 119.989 177.027 120.511 177.634C121.034 178.241 121.795 178.544 122.793 178.544C123.297 178.544 123.769 178.465 124.207 178.306C124.646 178.138 125.075 177.877 125.495 177.522L126.083 178.95C125.701 179.323 125.211 179.617 124.613 179.832C124.025 180.037 123.4 180.14 122.737 180.14ZM128.487 180V170.13H130.279V174.246H135.361V170.13H137.153V180H135.361V175.744H130.279V180H128.487ZM149.193 180.14C148.241 180.14 147.405 179.93 146.687 179.51C145.977 179.09 145.427 178.502 145.035 177.746C144.643 176.981 144.447 176.085 144.447 175.058C144.447 174.022 144.643 173.126 145.035 172.37C145.427 171.614 145.977 171.031 146.687 170.62C147.396 170.2 148.231 169.99 149.193 169.99C150.154 169.99 150.989 170.2 151.699 170.62C152.408 171.031 152.959 171.614 153.351 172.37C153.743 173.126 153.939 174.017 153.939 175.044C153.939 176.08 153.743 176.981 153.351 177.746C152.959 178.502 152.408 179.09 151.699 179.51C150.989 179.93 150.154 180.14 149.193 180.14ZM149.193 178.6C150.098 178.6 150.803 178.287 151.307 177.662C151.811 177.037 152.063 176.169 152.063 175.058C152.063 173.938 151.811 173.07 151.307 172.454C150.812 171.838 150.107 171.53 149.193 171.53C148.287 171.53 147.583 171.838 147.079 172.454C146.575 173.07 146.323 173.938 146.323 175.058C146.323 176.169 146.575 177.037 147.079 177.662C147.583 178.287 148.287 178.6 149.193 178.6ZM160.703 180.14C159.35 180.14 158.314 179.79 157.595 179.09C156.886 178.381 156.531 177.335 156.531 175.954V170.13H158.323V175.94C158.323 176.827 158.524 177.494 158.925 177.942C159.336 178.381 159.928 178.6 160.703 178.6C162.28 178.6 163.069 177.713 163.069 175.94V170.13H164.847V175.954C164.847 177.335 164.497 178.381 163.797 179.09C163.097 179.79 162.066 180.14 160.703 180.14ZM170.157 180V171.628H166.769V170.13H175.337V171.628H171.949V180H170.157Z" fill="white"/>
<defs>
<filter id="filter0_d_449_487" x="0" y="0" width="260" height="260" filterUnits="userSpaceOnUse" color-interpolation-filters="sRGB">
<feFlood flood-opacity="0" result="BackgroundImageFix"/>
<feColorMatrix in="SourceAlpha" type="matrix" values="0 0 0 0 0 0 0 0 0 0 0 0 0 0 0 0 0 0 127 0" result="hardAlpha"/>
<feOffset dy="10"/>
<feGaussianBlur stdDeviation="15"/>
<feComposite in2="hardAlpha" operator="out"/>
<feColorMatrix type="matrix" values="0 0 0 0 0.262745 0 0 0 0 0.388235 0 0 0 0 0.776471 0 0 0 0.4 0"/>
<feBlend mode="normal" in2="BackgroundImageFix" result="effect1_dropShadow_449_487"/>
<feBlend mode="normal" in="SourceGraphic" in2="effect1_dropShadow_449_487" result="shape"/>
</filter>
<linearGradient id="paint0_linear_449_487" x1="30" y1="108" x2="230" y2="108" gradientUnits="userSpaceOnUse">
<stop stop-color="#89309A"/>
<stop offset="1" stop-color="#4363C6"/>
</linearGradient>
</defs>
</svg>
