<svg width="16" height="16" viewBox="0 0 16 16" fill="#05A9C5" xmlns="http://www.w3.org/2000/svg">
<g id="date_range_24px">
<path id="icon/action/date_range_24px" fill-rule="evenodd" clip-rule="evenodd" d="M12.6667 14.6667C13.4 14.6667 14 14.0667 14 13.3333V3.99999C14 3.26666 13.4 2.66666 12.6667 2.66666H12V1.33333H10.6667V2.66666H5.33333V1.33333H4V2.66666H3.33333C2.59333 2.66666 2.00667 3.26666 2.00667 3.99999L2 13.3333C2 14.0667 2.59333 14.6667 3.33333 14.6667H12.6667ZM6 7.33333H4.66667V8.66666H6V7.33333ZM3.33333 5.33333H12.6667V3.99999H3.33333V5.33333ZM12.6667 6.66666V13.3333H3.33333V6.66666H12.6667ZM10 8.66666H11.3333V7.33333H10V8.66666ZM8.66667 8.66666H7.33333V7.33333H8.66667V8.66666Z" />
</g>
</svg>
