<svg width="16" height="17" viewBox="0 0 16 17" fill="#323232" xmlns="http://www.w3.org/2000/svg">
<path d="M15.5556 3.3543C13.2356 3.9413 10.5156 4.19287 8 4.19287C5.48444 4.19287 2.76444 3.9413 0.444444 3.3543L0 5.03145C1.65333 5.45073 3.55556 5.72746 5.33333 5.87002V16.7715H7.11111V11.74H8.88889V16.7715H10.6667V5.87002C12.4444 5.72746 14.3467 5.45073 16 5.03145L15.5556 3.3543ZM8 3.3543C8.97778 3.3543 9.77778 2.59958 9.77778 1.67715C9.77778 0.754717 8.97778 0 8 0C7.02222 0 6.22222 0.754717 6.22222 1.67715C6.22222 2.59958 7.02222 3.3543 8 3.3543Z" />
</svg>
