<svg width="14" height="14" viewBox="0 0 14 14" fill="#1E1E1E" xmlns="http://www.w3.org/2000/svg">
<path d="M7.00001 1.91667C7.96668 1.91667 8.75001 2.7 8.75001 3.66667C8.75001 4.63334 7.96668 5.41667 7.00001 5.41667C6.03334 5.41667 5.25001 4.63334 5.25001 3.66667C5.25001 2.7 6.03334 1.91667 7.00001 1.91667ZM7.00001 9.41667C9.47501 9.41667 12.0833 10.6333 12.0833 11.1667V12.0833H1.91668V11.1667C1.91668 10.6333 4.52501 9.41667 7.00001 9.41667ZM7.00001 0.333336C5.15834 0.333336 3.66668 1.825 3.66668 3.66667C3.66668 5.50834 5.15834 7 7.00001 7C8.84168 7 10.3333 5.50834 10.3333 3.66667C10.3333 1.825 8.84168 0.333336 7.00001 0.333336ZM7.00001 7.83334C4.77501 7.83334 0.333344 8.95 0.333344 11.1667V13.6667H13.6667V11.1667C13.6667 8.95 9.22501 7.83334 7.00001 7.83334Z" />
</svg>
