<svg width="280" height="87" viewBox="0 0 280 87" fill="none" xmlns="http://www.w3.org/2000/svg">
<path d="M95.9018 38.4341C96.7194 38.4341 97.3939 38.1479 97.9662 37.5756C98.5181 37.0033 98.8042 36.3288 98.8042 35.5521V24.2491H103.362V35.5521C103.362 37.6165 102.626 39.3538 101.175 40.805C99.724 42.2562 97.9662 42.9716 95.9018 42.9716C93.9192 42.9716 92.2023 42.2767 90.7511 40.8868C89.3203 42.2767 87.6034 42.9716 85.6004 42.9716C83.5564 42.9716 81.8191 42.2562 80.3679 40.805C78.9167 39.3538 78.1808 37.5961 78.1808 35.5521V24.2491H82.7388V35.5521C82.7388 36.3492 83.025 37.0238 83.5769 37.5756C84.1287 38.1479 84.8032 38.4341 85.6004 38.4341C86.4179 38.4341 87.0924 38.1479 87.6647 37.5756C88.2166 37.0033 88.5028 36.3288 88.5028 35.5521V24.2491H93.0608V35.5521C93.0608 36.3492 93.3469 37.0238 93.8988 37.5756C94.4302 38.1479 95.1047 38.4341 95.9018 38.4341Z" fill="#05A9C5"/>
<path d="M113.48 24.29H121.022V28.848H113.48C111.926 28.848 110.741 29.6247 109.944 31.1576H117.609V35.7156H109.944C110.741 37.2282 111.926 37.9844 113.48 37.9844H121.022V42.5424H113.48C111.048 42.5424 108.983 41.6431 107.307 39.824C105.631 38.0253 104.793 35.8791 104.793 33.4264C104.793 30.9737 105.631 28.8275 107.307 27.0084C108.983 25.1893 111.048 24.29 113.48 24.29Z" fill="#05A9C5"/>
<path d="M134.348 24.29C135.861 24.29 137.149 24.8214 138.232 25.9047C139.295 26.988 139.826 28.2757 139.826 29.7882C139.826 31.2394 139.479 32.4658 138.784 33.4264C139.479 34.3871 139.826 35.4499 139.826 36.6354V37.0646C139.826 38.5567 139.295 39.8444 138.232 40.9277C137.169 42.011 135.881 42.5424 134.348 42.5424H122.473V24.29H134.348ZM135.268 37.0646C135.268 36.1449 134.962 35.6952 134.348 35.6952H129.79V31.1372H134.348C134.594 31.1372 134.819 31.035 135.003 30.851C135.186 30.6671 135.268 30.4423 135.268 30.2174C135.268 29.2976 134.962 28.8275 134.348 28.8275H127.031V37.964H134.348C134.594 37.964 134.819 37.8618 135.003 37.6778C135.186 37.5143 135.268 37.3099 135.268 37.0646Z" fill="#05A9C5"/>
<path d="M159.305 24.29H166.847V28.848H159.305C157.752 28.848 156.566 29.6247 155.769 31.1576H163.434V35.7156H155.769C156.566 37.2282 157.752 37.9844 159.305 37.9844H166.847V42.5424H159.305C156.873 42.5424 154.808 41.6431 153.132 39.824C151.456 38.0253 150.618 35.8791 150.618 33.4264C150.618 30.9737 151.456 28.8275 153.132 27.0084C154.808 25.1893 156.873 24.29 159.305 24.29Z" fill="white"/>
<path d="M176.679 28.4392C177.619 27.1311 178.845 26.1091 180.358 25.3937C181.809 24.6783 183.383 24.3309 185.018 24.3309V28.8889C183.648 28.8889 182.442 29.2976 181.359 30.1357C180.194 31.0146 179.601 32.1387 179.601 33.4673C179.601 34.7959 180.194 35.8996 181.359 36.7989C182.442 37.6165 183.648 38.0049 185.018 38.0049V42.5628C183.362 42.5628 181.809 42.2154 180.358 41.5C178.845 40.7642 177.619 39.7422 176.679 38.4545C175.718 39.7626 174.492 40.7846 172.999 41.5C171.507 42.2154 169.934 42.5833 168.278 42.5833V38.0253C169.647 38.0253 170.853 37.6165 171.937 36.8194C173.122 35.9405 173.715 34.8163 173.715 33.4877C173.715 32.1592 173.122 31.0554 171.937 30.1561C170.853 29.3181 169.647 28.9093 168.278 28.9093V24.3513C169.934 24.3513 171.507 24.7192 172.999 25.4346C174.492 26.1091 175.718 27.1311 176.679 28.4392Z" fill="white"/>
<path d="M196.607 24.4331C198.528 24.4331 200.163 25.1484 201.512 26.5588C202.8 27.9691 203.434 29.6247 203.434 31.5664C203.434 33.4877 202.8 35.1433 201.512 36.5536C200.163 37.9844 198.549 38.6794 196.627 38.6794H191.047V42.522H186.49V24.4331C186.49 24.4331 196.607 24.4331 196.607 24.4331ZM196.587 34.1418C197.241 34.1418 197.772 33.8761 198.222 33.3447C198.651 32.8132 198.876 32.2205 198.876 31.5869C198.876 30.9124 198.651 30.3196 198.222 29.7882C197.793 29.2568 197.241 28.9911 196.587 28.9911H191.027V34.1418H196.587Z" fill="white"/>
<path d="M213.551 24.29H221.093V28.848H213.551C211.998 28.848 210.812 29.6247 210.015 31.1576H217.68V35.7156H210.015C210.812 37.2282 211.998 37.9844 213.551 37.9844H221.093V42.5424H213.551C211.119 42.5424 209.055 41.6431 207.379 39.824C205.703 38.0253 204.865 35.8791 204.865 33.4264C204.865 30.9737 205.703 28.8275 207.379 27.0084C209.055 25.1893 211.099 24.29 213.551 24.29Z" fill="white"/>
<path d="M234.522 36.3901C234.992 37.453 235.626 37.9844 236.423 37.9844H239.305V42.5424H236.423C235.074 42.5424 233.807 42.0723 232.621 41.1525C231.436 40.2327 230.618 39.1086 230.169 37.8005L228.063 31.873H233.746C234.113 31.873 234.42 31.7095 234.645 31.4029C234.89 31.0759 235.013 30.7284 235.013 30.3605C235.013 29.9721 234.89 29.6247 234.645 29.3181C234.4 29.0115 234.093 28.848 233.725 28.848H226.776V42.5424H222.218V24.29H233.725C235.36 24.29 236.73 24.8827 237.854 26.0887C238.978 27.2946 239.53 28.7253 239.53 30.3809C239.53 31.873 239.06 33.2016 238.099 34.3666C237.2 35.5317 235.994 36.1857 234.522 36.3901Z" fill="white"/>
<path d="M240.695 24.29H253.429V28.848H249.341V42.5424H244.783V28.848H240.695V24.29Z" fill="white"/>
<path d="M259.417 29.7678C259.417 30.6671 259.724 31.1372 260.317 31.1372H266.735C268.247 31.1372 269.555 31.6686 270.618 32.7519C271.681 33.8352 272.213 35.1229 272.213 36.6354V37.0442C272.213 38.5567 271.681 39.8444 270.618 40.9277C269.555 42.011 268.268 42.5424 266.735 42.5424H256.249V37.9844H266.735C266.98 37.9844 267.205 37.8822 267.389 37.6983C267.573 37.5143 267.655 37.2895 267.655 37.0442C267.655 36.1449 267.348 35.6952 266.735 35.6952H260.337C258.845 35.6952 257.557 35.1638 256.474 34.0805C255.391 32.9972 254.859 31.7095 254.859 30.197V29.7882C254.859 28.2757 255.391 26.9675 256.474 25.9047C257.557 24.8214 258.845 24.29 260.337 24.29H270.864V28.848H260.317C260.092 28.848 259.888 28.9502 259.704 29.1341C259.52 29.2772 259.417 29.502 259.417 29.7678Z" fill="white"/>
<path d="M70.4139 17.7494L67.6954 8.04062C67.0209 5.62876 64.5069 4.21844 62.095 4.89294L31.5994 13.4162L70.4139 17.7494Z" fill="white"/>
<path d="M20.5621 16.7683C20.5825 16.6865 20.5825 16.5843 20.6029 16.5026L9.42257 19.6093C7.01071 20.2839 5.60039 22.7979 6.27489 25.2098L15.8201 59.3436L20.5621 16.7683Z" fill="white"/>
<path d="M19.3561 72.0161L20.9913 77.8822C21.6658 80.2941 24.1799 81.7044 26.5917 81.0299L47.6239 75.1638L19.3561 72.0161Z" fill="white"/>
<path d="M34.0726 38.107C34.3996 38.4341 35.3398 38.4545 35.8304 38.291C35.9939 37.7187 35.4829 37.5143 35.1354 37.2281C34.8493 36.9829 34.5018 36.8398 34.3178 36.6354C34.3792 36.4514 34.7062 36.5332 34.7062 36.2675C34.4814 36.2062 34.2565 36.2266 34.0521 36.3697C34.0112 36.6967 33.6842 36.9624 33.2754 37.0033C33.071 36.7376 32.9893 36.3697 32.744 36.1449C32.1717 36.1244 32.2126 36.5945 31.9264 36.9011C31.6811 37.1668 31.395 37.2077 31.3746 37.5756C31.395 37.6778 31.5381 37.6778 31.4972 37.8413C31.4563 37.9844 31.3132 38.2092 31.3746 38.3523C31.6811 38.107 32.1513 38.1888 32.6418 38.1888C32.8462 37.8005 33.7047 37.8005 34.1339 38.0457C34.1543 38.0866 34.093 38.0662 34.0726 38.107Z" fill="#05A9C5"/>
<path d="M24.793 51.1065V51.9241C24.8748 51.7606 25.0587 51.638 25.0792 51.5153C25.0792 51.3109 24.9361 51.2087 24.793 51.1065Z" fill="#05A9C5"/>
<path d="M32.1513 53.9681C32.4987 53.7841 32.7031 53.3958 32.6827 53.0074C31.9877 52.5986 31.6607 53.7023 32.1513 53.9681Z" fill="#05A9C5"/>
<path d="M38.0787 38.2092C38.3036 38.3932 38.6715 38.3728 38.7328 38.618C38.5897 38.9042 38.3036 39.0677 37.997 39.0677C37.9152 39.2517 37.8948 39.4765 37.9356 39.6809C38.3853 39.967 39.1416 40.3758 39.8161 40.0897C39.857 39.6196 39.7548 39.1699 39.5095 38.7611C39.5299 38.5772 39.7343 38.5772 39.7752 38.3932C39.3664 38.2297 39.2233 37.8413 38.9985 37.5143C38.8963 37.4939 38.7328 37.5347 38.7328 37.4325C38.7737 37.0851 38.9576 36.8602 39.2438 36.8807C39.3664 36.8807 39.4277 37.0238 39.5708 37.0646C39.7752 37.126 39.9796 37.1055 40.1431 37.0033C40.0818 36.7376 39.857 36.5945 39.7752 36.3493C39.5912 36.2471 39.4073 36.1857 39.2029 36.1244C38.8759 36.2266 38.7532 36.5536 38.4057 36.5741C38.1605 36.5741 38.0583 36.4106 37.8334 36.4515C37.6495 36.4923 37.486 36.758 37.4247 36.942C37.3429 37.3303 37.5269 37.453 37.7312 37.7187C37.8334 37.8822 37.9356 38.0457 38.0787 38.2092Z" fill="#05A9C5"/>
<path d="M33.4389 31.2803C33.4798 30.8919 32.8462 30.6058 32.6418 30.9532C32.6418 31.2598 33.1323 31.4438 33.4389 31.2803Z" fill="#05A9C5"/>
<path d="M25.5084 29.2976C26.0194 29.0933 26.4486 29.0932 26.8983 28.8275C27.0822 28.7253 27.2662 28.5823 27.4297 28.4392C27.5728 28.2757 27.6546 28.0508 27.8385 27.9078C28.1042 27.7034 28.7583 27.4581 29.1875 27.2741C29.6781 27.0697 30.2095 26.8245 30.6592 26.804C31.1497 26.7836 31.5585 27.0697 32.0082 27.1924C32.6213 27.3355 33.1323 27.642 33.6024 27.8056C33.909 28.3574 34.7879 28.0508 35.442 28.153C35.953 28.2348 36.1574 28.6231 36.464 28.8684C35.7077 29.2976 34.7879 29.359 33.9908 29.0319C33.9295 29.1546 34.1952 29.2568 34.2769 29.359C34.3587 29.4612 34.2361 29.7473 34.3587 29.8495C34.6448 29.8699 34.747 29.7269 34.9106 29.6247C35.1763 29.7064 35.4215 30.0539 35.7486 29.8291C35.7486 29.686 35.769 29.5225 35.8099 29.3794C36.1369 29.2976 36.4435 29.1546 36.7705 29.0728C36.9341 29.1341 36.8932 29.3998 37.0567 29.4816C37.3224 29.2159 36.9136 28.7458 37.0771 28.3983C37.2611 28.3166 37.813 28.2348 37.9152 28.4801C37.956 28.6845 37.6494 28.9502 37.7516 29.175C38.0378 29.1341 38.0378 28.8071 38.2831 28.7253C39.2028 28.9706 39.6729 28.2961 40.4292 28.7253C40.5927 28.4392 41.2672 28.7049 41.5329 28.5209C41.676 28.5823 41.8395 28.7458 42.003 28.7253C42.2483 28.7253 42.4118 28.3574 42.6367 28.2757C43.1477 28.1122 43.4747 28.4392 43.7813 28.5209C43.9652 28.5823 44.1287 28.5823 44.2923 28.6436C44.6193 28.7662 44.7215 28.8889 45.1303 28.8071C45.1916 28.4392 43.8835 27.9895 44.8032 27.7034C45.212 27.5807 45.396 26.9267 45.7843 26.9267C46.1318 26.9267 46.2749 27.3355 46.6019 27.4377C46.418 27.9282 46.418 28.4801 46.561 28.9706C46.3566 29.359 45.8661 29.4407 45.7026 29.8495C45.9479 29.8699 46.2136 29.8086 46.418 29.6656C46.745 29.4407 46.9494 28.848 47.3377 28.848C47.6443 28.848 47.8283 29.4816 48.3188 29.0933C48.278 28.8889 48.1758 28.7458 48.1349 28.5414C47.6035 28.3983 47.2355 28.7049 46.9085 28.8684C46.9903 28.2348 46.6837 27.5399 47.3173 27.2946C47.3991 27.499 47.1947 27.9078 47.4808 28.0713C47.583 28.0713 47.6648 28.0508 47.7465 28.01C47.91 27.8056 47.8283 27.5194 48.0122 27.3763C48.3597 27.1106 48.7072 27.5194 48.8503 27.7647C49.116 27.8464 49.3612 27.9486 49.627 28.0713C49.6474 28.2961 49.627 28.6436 49.9131 28.6027C50.1379 28.5618 50.0766 28.1939 49.9744 28.0304C49.77 27.6829 48.9525 27.6216 48.9525 27.2537C49.3612 27.0493 49.7496 27.2741 50.1788 27.2537C50.976 27.1924 51.4052 26.4566 52.4885 26.5996C52.5907 26.6405 52.7133 26.661 52.8155 26.6814C53.3061 26.6814 53.6535 26.2522 53.9601 26.0069C54.2667 26.8858 55.6975 26.5588 56.1676 26.0887C56.1471 26.1704 56.2289 26.1704 56.2902 26.1908C56.7194 26.1091 57.1691 26.2522 57.4961 26.5792C57.8641 26.3748 59.908 26.477 59.9898 26.8654C60.0715 27.2128 59.6014 27.2741 59.5196 27.5399C60.1328 27.8056 60.9913 27.6216 61.6045 27.8669C61.9111 27.9895 62.0133 28.2144 62.4425 28.0713C62.5651 28.0304 62.6673 27.9078 62.79 27.8669C63.3418 27.6829 63.955 27.8056 64.6295 27.8669C64.8543 28.2961 64.5886 28.9911 65.2223 29.0115C65.5084 29.0115 65.6106 28.7458 65.8559 28.6231C65.999 28.5823 66.0194 28.8275 66.1829 28.8684C66.2033 28.8684 66.837 28.848 67.0005 28.848C67.164 28.848 67.348 28.7253 67.491 28.7049C67.6341 28.7049 67.7567 28.7662 67.8181 28.7458C68.186 28.664 68.3086 28.1735 68.2677 27.8464C68.0838 27.5807 67.3684 27.7647 67.2049 27.4785C67.1844 27.315 67.2662 27.1311 67.4297 27.0697C67.6137 27.0493 67.5319 27.2537 67.6954 27.2333C68.4926 27.2333 69.5554 27.0902 69.9029 27.7238C69.5759 27.8464 69.2488 27.9078 68.9014 27.9282C68.9218 28.2144 69.535 28.2757 69.7189 28.5209C70.0051 28.6027 70.4139 28.4596 70.7409 28.5005V26.293C70.7409 24.2082 69.0444 22.5117 66.9596 22.5117H28.5743C26.4895 22.5117 24.793 24.2082 24.793 26.293V29.87C25.0179 29.5838 25.304 29.359 25.5084 29.2976ZM41.165 26.4361C41.3694 26.3135 41.5125 26.0682 41.6965 26.0069C41.8804 25.9456 42.2688 25.966 42.6162 25.9251C42.9024 25.8638 43.1885 25.8229 43.4747 25.8025C43.863 25.8229 44.1492 25.966 44.4967 25.8843C44.7624 25.8229 44.9872 25.4959 45.3347 25.8229C45.1507 26.0682 44.8646 26.4974 44.4149 26.5179C44.2923 26.4974 44.1696 26.477 44.047 26.4361C42.8206 26.2522 41.6147 26.477 41.1241 27.2537C41.2263 27.4172 41.4307 27.5194 41.4716 27.7238C41.0424 28.4801 40.1226 27.6216 39.5503 27.4785C39.6525 26.8654 40.6745 26.7836 41.165 26.4361Z" fill="#05A9C5"/>
<path d="M25.7946 39.1903C26.142 39.3539 26.1625 39.7626 26.0807 40.1306C25.9376 40.1919 25.6515 40.1101 25.5697 40.2328C25.488 40.4371 25.7946 40.6007 25.9785 40.662C25.9785 40.9277 26.5917 41.1321 27.0414 41.1934C27.3071 41.4796 27.6546 41.6635 28.0225 41.7657C28.4926 42.5424 29.0036 41.4387 29.3102 41.0912C29.535 41.0708 29.6576 41.2752 29.8825 41.3365C30.373 41.5 31.0066 41.3569 31.4972 41.5409C31.3745 41.9701 30.8636 41.9701 30.7 42.3585C31.0271 42.4811 31.1088 42.0927 31.2928 41.9292C31.5789 41.7248 31.9468 41.7248 32.3556 41.6226C32.4783 41.684 32.56 41.7657 32.6213 41.8883C32.7644 41.8475 32.9075 41.827 33.071 41.8475C33.4798 41.3978 33.8886 40.7642 33.8068 39.9057C33.398 39.9466 32.7235 40.1919 32.2534 39.8853C31.5994 40.151 31.2519 39.4765 30.7818 39.2925C30.7 38.9246 30.9044 38.3114 30.6387 38.1275C30.3117 38.2092 30.1482 38.4341 29.8416 38.5363C30.0051 38.7815 30.3117 38.9859 30.2095 39.2517C30.1482 39.4152 29.8416 39.5174 29.6372 39.6809C29.4328 39.824 29.2488 40.0488 29.0444 40.0284C28.9014 39.5787 29.024 39.1495 28.9014 38.7611C28.8196 38.618 28.7379 38.4954 28.6561 38.3728C28.5539 38.1684 28.5335 37.964 28.4108 37.8209C28.1247 37.5143 27.8385 37.2486 27.5115 37.0033C27.1845 36.7172 26.9392 36.2879 26.5304 36.2471C26.326 36.3493 26.5917 36.5741 26.51 36.6558C26.837 36.8807 26.9801 37.1668 27.2253 37.3917C27.348 37.4939 27.5319 37.5552 27.6954 37.6778C27.7159 37.6983 27.6137 37.7187 27.6341 37.7391C27.7772 37.9027 28.1655 38.0457 28.3495 38.1888C28.2882 38.3114 28.0838 38.2706 27.8998 38.2706C27.8794 38.618 27.9407 38.8837 27.9203 39.2312C27.4502 39.0881 27.5524 38.4136 27.2253 38.1479C26.9801 37.9435 26.5508 37.9027 26.3669 37.78C26.1625 37.6574 25.9785 37.4939 25.8559 37.3099C25.7128 37.1055 25.6924 36.758 25.3449 36.7376C25.1405 36.7376 24.977 36.9011 24.8135 37.0033V39.1699C25.1814 39.1699 25.4471 39.0064 25.7946 39.1903ZM27.4093 39.2517C27.2253 39.9466 26.4895 39.1903 26.3464 38.9042C26.7757 38.8429 27.2867 38.9655 27.4093 39.2517ZM25.2631 37.8413C25.3653 37.9027 25.4062 38.0457 25.5289 38.107C25.4675 39.1086 24.3638 38.0457 25.2631 37.8413Z" fill="#05A9C5"/>
<path d="M65.9785 67.5807C65.999 67.4172 65.8559 67.3763 65.8968 67.1924C65.7537 67.1924 65.815 67.4172 65.6106 67.3763C65.5902 67.1719 65.5902 66.9471 65.6106 66.7427C65.0792 66.7632 65.1201 67.5399 64.4865 67.3355C64.5273 67.1106 64.6704 66.988 64.65 66.804C64.5887 66.3339 63.6893 66.4566 63.6076 65.9865C62.7491 65.9456 62.4016 66.3748 61.5636 66.2113C61.4001 66.4974 61.1548 66.8654 61.1753 67.2537C60.746 67.2946 60.4394 66.9471 60.0715 66.9675C59.6219 66.988 59.2744 67.6012 58.5999 67.3763C58.3955 67.1106 58.1502 67.0493 58.1911 66.7427C58.232 66.4566 58.7021 66.3952 58.7225 66.1295C58.743 65.9047 58.4364 65.8229 58.3546 65.4959C58.3137 65.3528 58.3751 65.1893 58.3342 65.0871C58.232 64.6988 57.7006 64.4535 57.9867 63.9834C57.9663 64.0447 58.0889 63.8199 58.0889 63.8607C58.0889 63.6155 57.5575 63.4315 57.5166 63.2476C57.4757 63.0227 57.7619 62.6548 57.8845 62.5322C58.1911 62.2256 58.6817 62.0416 59.0496 61.7555C59.7649 61.8986 59.9898 61.5307 60.6234 61.5715C60.6438 61.1423 60.5008 60.5904 60.6847 60.2225C61.0322 60.1408 61.2775 60.3656 61.6658 60.3656C61.8907 59.9773 62.0337 59.4458 62.4834 59.5071C62.79 59.548 62.7491 60.0386 63.0353 60.0181C63.3623 59.9977 63.3214 59.3232 63.6484 59.221L63.6689 58.894C63.8324 58.7918 63.9142 59.2619 64.1594 59.3028C64.2616 58.9962 64.1594 58.8326 64.4251 58.8122C64.5273 58.8122 64.5069 59.0984 64.7113 59.1392C65.0179 59.1392 65.4675 59.0166 65.6924 59.221C65.8355 59.6502 65.3858 59.7524 65.4062 60.0999C65.4267 60.4474 66.1216 60.5291 66.4282 60.8153C66.5917 60.9788 66.5917 61.1832 66.8166 61.2241C67.1436 60.9379 67.348 60.5087 67.348 60.059C67.348 59.9364 67.2458 59.8137 67.2253 59.6911C67.2049 59.3028 67.3071 58.9144 67.5115 58.5874C67.7159 58.7509 67.5933 59.0984 67.7363 59.3641C67.8794 59.6298 68.1247 59.8751 68.2473 60.1203C68.3291 60.2838 68.513 60.386 68.5743 60.5291C68.7787 60.9379 68.5948 61.6124 68.9831 61.919C69.2897 62.1643 69.6985 62.103 70.0051 62.3278C70.1482 62.6344 70.0664 62.9205 70.1277 63.2271C70.1891 63.5337 70.5161 63.7381 70.5979 64.1265C70.5979 64.1469 70.557 64.1878 70.557 64.2287C70.5979 64.3513 70.6796 64.4535 70.7409 64.5557V33.4877C70.6796 33.5082 70.6183 33.5082 70.557 33.5082C70.0051 33.5286 69.4328 33.3855 68.8196 33.3855C68.3086 33.6104 68.0225 34.1418 67.5115 34.3871C67.1845 34.5506 66.7348 34.5506 66.5713 34.9185C66.7144 35.2046 66.9188 34.9185 67.1231 34.8776C67.1436 35.0002 67.1436 35.1638 67.2049 35.2455C67.6137 35.3068 68.2064 34.8776 68.3495 35.4704C68.5539 35.3886 68.7787 35.3477 69.0036 35.3682C69.024 35.4704 69.0649 35.5521 69.1262 35.6339C69.0445 35.7769 68.9627 35.8791 68.8401 35.9813C69.1058 36.1653 69.2284 36.4719 69.208 36.7989C69.208 36.8807 69.208 36.942 69.208 37.0238C69.1467 37.1464 68.9627 37.1873 68.9218 37.3303C68.8196 37.6165 69.0036 37.9435 68.9218 38.2297C67.9407 38.0457 68.8196 36.431 68.3904 35.7974C68.2882 35.8791 68.37 36.0835 68.37 36.1857C68.2678 36.5128 67.9816 36.8194 68.0225 37.1668C67.7772 37.7391 66.8983 38.2706 66.3873 38.7202C66.0807 38.9859 65.7537 39.5174 65.2223 38.9859C64.9361 39.3334 64.3434 39.3743 64.3025 39.967C64.139 40.0488 63.9755 40.1101 63.812 40.1714C63.8324 40.5189 64.0163 40.8664 64.2821 41.0912C64.2821 41.6635 63.8733 42.338 63.4032 42.2971C63.2397 42.2563 63.0966 42.1541 63.0353 41.9905C63.0148 41.7657 63.3418 41.6022 63.3418 41.3365C63.3418 41.1321 63.2601 41.0912 63.1375 40.8664C62.9331 40.8664 62.8922 41.0503 62.6878 41.0708C62.6265 40.6824 62.9126 40.2941 62.6469 39.9875C62.3199 40.0897 62.1359 40.3554 61.7476 40.3963C61.6045 40.151 61.8293 39.8648 61.8906 39.5991C61.5636 39.5991 61.3797 39.9875 61.0935 40.1305C60.8891 40.2327 60.6438 40.1919 60.5621 40.4167C60.7256 40.9481 61.3388 41.0299 61.8906 40.9277C62.2177 41.4591 61.4205 41.6022 61.0731 41.7453C61.3592 42.1745 61.4205 42.522 61.7271 42.9308C61.9111 43.176 61.5841 43.7279 61.8089 44.014C61.6045 44.5864 60.8891 44.9747 60.4599 45.4244C60.2555 45.6288 60.1124 45.8945 59.8876 46.0784C59.4788 46.3237 59.0291 46.4668 58.5386 46.4872C58.3955 46.4668 58.2729 46.4463 58.1298 46.4259C57.6597 46.4872 57.721 47.08 57.9458 47.3252C57.721 47.5092 57.721 47.9997 57.3735 47.9793C57.21 47.9793 57.0874 47.8362 57.0874 47.6727C57.0261 47.2639 57.8028 46.4463 57.21 46.3646C56.9852 46.3237 56.7808 46.6916 56.7603 46.7325C56.6173 46.8347 56.4742 46.9573 56.3311 47.1004C56.4333 47.1208 56.3311 47.2844 56.3311 47.2639C56.372 47.6727 56.8421 47.8567 57.0261 48.2246C57.1283 48.4085 57.1078 48.5516 57.21 48.6742C57.3122 48.8173 57.5779 49.0013 57.5779 49.3079C57.394 49.6349 57.5166 50.0232 57.2918 50.289C57.0669 50.5547 56.7399 50.4116 56.4742 50.5955C56.3311 51.0248 56.0858 51.3927 55.7793 51.7197C55.5544 50.7591 55.35 49.7575 54.4711 49.3487C54.3894 49.7371 54.2667 50.1254 54.1032 50.4934C53.4696 50.0846 53.7762 48.756 53.6127 48.0406C52.8155 48.0406 52.9586 49.0013 52.4681 49.3079C52.3046 48.6947 52.6111 48.1019 52.5498 47.5909C52.4885 47.08 52.0593 46.7938 51.8549 46.3646C51.7731 46.1806 51.814 46.0171 51.6505 45.874C51.4461 45.9354 51.3439 46.0989 51.2008 46.2011C50.8329 46.2419 50.4037 46.1193 50.138 46.2828C49.9745 46.385 49.9336 46.569 49.8109 46.7121C49.6883 46.8551 49.4635 46.9369 49.3204 47.1004C49.116 47.3252 48.9729 47.591 48.789 47.7136C48.4824 47.918 48.1758 47.8771 48.0123 48.245C47.9918 48.6742 48.1349 49.1239 48.0531 49.5531C47.9918 49.8597 47.6648 50.1663 47.5013 50.432C47.2969 50.7591 47.1947 51.127 46.8881 51.2087C46.6428 50.943 46.7859 50.6364 46.6837 50.3298C46.3567 49.3079 45.4778 48.2655 45.4982 46.9164C45.4982 46.5894 45.6004 46.2624 45.58 45.874C45.3551 45.874 45.2325 46.2828 44.9463 46.2624C44.4762 46.2215 44.742 45.6492 44.5784 45.2813C44.4762 45.0565 44.231 45.0973 44.0061 44.9951C43.8222 44.7907 43.7609 44.5046 43.4951 44.3615C43.2908 44.4024 43.1886 44.6681 42.8615 44.6885C42.4119 44.709 41.4512 44.6272 41.165 44.5046C40.7767 44.3206 40.8176 43.871 40.4905 43.7279C40.2248 43.7279 40.1022 43.9936 39.8774 43.9936C39.7343 43.9936 39.489 43.7688 39.3255 43.6461C39.1415 43.5235 38.978 43.4009 38.7941 43.2782C38.5284 42.9921 38.5692 42.5424 38.324 42.3993C37.6903 42.4606 37.8947 42.9308 38.1196 43.2782C38.14 43.3395 38.1196 43.4009 38.14 43.4417C38.2218 43.5644 38.4262 43.6666 38.4875 43.8097C38.5897 44.014 38.651 44.3411 38.8963 44.4024C38.7736 44.4433 38.9167 44.525 38.9576 44.6068C38.978 44.7294 38.978 44.8725 39.0802 44.9338C39.6525 44.8725 39.8978 44.4842 40.2657 44.2184C40.3884 44.3002 40.4497 44.4637 40.3884 44.6068C40.7154 44.8725 41.4921 44.9543 41.5125 45.4244C41.5125 45.5879 41.3081 45.731 41.2059 45.8945C40.9811 46.2828 40.7358 46.6712 40.4292 47.0186C40.0818 47.3457 39.6525 47.5092 39.162 47.6931C38.9985 47.7545 38.8758 47.8975 38.7123 47.9589C38.467 48.0406 38.2013 48.0202 37.9969 48.1224C37.4246 48.3472 36.8523 48.7969 36.0347 48.7356C35.6668 48.2041 35.769 47.5705 35.6464 47.0391C35.4216 46.1602 34.4405 45.7514 34.4813 44.5864C34.0112 44.2389 34.0112 43.4826 33.7046 43.0125C33.4798 42.9921 33.255 43.0125 33.1528 43.1147C33.1323 43.4622 33.5003 43.7279 33.5411 44.1162C33.5003 44.3206 33.582 44.525 33.7455 44.6477C33.909 45.0769 33.7864 45.7923 33.8068 46.2828C34.0112 46.6916 34.5835 46.7938 34.7879 47.2026C34.7062 47.6523 35.2989 47.9589 35.5442 48.3063C35.4829 48.4698 35.7486 48.756 35.8917 48.94C35.9121 49.1648 35.8099 49.4101 35.8304 49.5123C35.953 49.8393 36.464 49.7167 36.6684 49.6553C37.1998 49.4918 37.7721 49.083 38.467 49.1443C38.5284 49.4509 38.3853 49.7575 38.324 50.0437C38.2218 50.4729 37.9561 50.7795 37.7312 51.127C37.5064 51.4744 37.2202 51.6175 37.2202 52.0059C37.0158 52.3942 36.6479 52.4964 36.28 52.7008C35.4216 53.1709 35.1354 54.2338 34.3178 54.7448C34.3178 55.0309 34.1134 55.2966 34.1134 55.5623C34.1134 55.7667 34.3383 56.0529 34.3383 56.3799C34.3792 56.6048 34.5222 56.8091 34.7266 56.9522C34.7471 57.1362 34.6857 57.3406 34.5631 57.4836C34.9515 58.7918 33.9499 59.1597 33.2959 59.732C32.9893 59.9977 32.6009 60.4882 32.6009 60.6926C32.6009 60.8562 32.7849 61.081 32.8053 61.3058C32.8258 61.5307 32.6827 61.6737 32.8462 61.8577C32.6214 62.1234 32.0695 62.0621 31.7833 62.246C31.5789 62.5526 31.9673 62.7366 31.9877 62.9614C32.0082 63.3089 31.3541 63.779 31.1088 64.0447C30.884 64.3104 30.5774 64.801 30.1891 65.0258C29.8007 65.2506 29.2693 65.1076 28.8605 65.128C28.37 65.128 27.9816 65.4346 27.6546 65.6185C26.6735 65.5163 27.0823 64.3717 26.7348 63.6155C26.5713 63.2884 26.1625 62.9001 26.1421 62.5935C26.1216 62.2052 26.4691 61.8781 26.4282 61.5511C26.4078 61.3263 26.1625 61.0605 26.0194 60.8562C25.5289 60.1817 24.7113 58.5261 25.5084 57.4632C25.6311 57.2997 25.8968 57.2384 25.9377 56.9931C25.9785 56.7478 25.7333 56.4821 25.7128 56.2164C25.6719 55.9507 25.7946 55.6441 25.7537 55.3784C25.6719 55.0513 25.5698 54.7448 25.4676 54.4382C25.304 53.9067 25.161 53.6615 24.8544 53.4162V64.617C24.8544 66.7018 26.5508 68.3983 28.6357 68.3983H66.4282C66.3464 68.0304 66.3464 67.6625 65.9785 67.5807ZM68.0838 39.0268C68.0634 38.475 68.8196 38.3728 68.8809 38.8429C69.2488 38.7815 69.6781 38.9246 69.7394 39.2312C69.6781 39.4152 69.535 39.3743 69.2488 39.3947C68.5948 39.4356 67.7159 39.824 67.5115 39.3743C67.5933 39.1495 67.8794 39.129 68.0838 39.0268ZM65.0996 41.7044C65.4676 41.7248 65.7128 41.8883 66.0194 41.8475C66.3669 41.7861 66.6326 41.3569 67.0209 41.3774C67.4093 41.2138 67.4706 40.3349 67.5933 39.8648C67.6341 39.7218 67.7772 39.6196 67.9407 39.6196C67.9203 39.9057 68.2882 40.2327 68.2882 40.662C68.2269 40.8051 68.002 40.7846 67.9407 40.9277C67.9612 41.1934 67.9407 41.4591 67.8998 41.7248C67.4911 41.9497 67.0823 42.1336 66.653 42.2767C66.5713 42.5424 66.1012 42.7468 65.8968 42.4402C65.7333 42.8081 65.3858 42.9103 64.977 42.6855C64.8135 42.7468 64.8952 43.0125 64.8544 43.1351C64.3638 43.5439 64.0572 42.8694 64.0777 42.3993C64.466 42.1949 64.8544 42.0314 65.0996 41.7044ZM64.5069 54.663C64.65 54.7448 64.5273 54.9287 64.6909 55.0309C64.977 55.0514 65.2427 55.1331 65.488 55.2557C65.9785 55.1536 66.4691 55.174 66.9392 55.3375C67.1231 55.4397 67.3071 55.5828 67.4706 55.7054C67.6955 55.8485 68.1451 55.9507 68.0429 56.012C68.4721 56.2777 68.697 56.7274 69.1466 56.9931C69.1262 57.8107 70.1482 57.9946 70.046 58.8327C69.2693 58.8327 68.8809 58.2399 68.6765 57.6472C67.9407 57.2997 67.8385 58.4647 67.4093 58.4443C67.0618 58.4443 67.0005 57.9946 66.8574 57.7494C66.5917 57.7085 66.4078 57.7698 66.1421 57.7494C66.1421 57.4836 66.326 57.4223 66.5713 57.4223C66.4282 56.7887 65.9377 56.4412 65.2018 56.339C65.1405 56.2777 65.161 56.1551 65.0792 56.1142C64.8135 56.0733 64.5682 56.2164 64.3638 56.1142C64.3434 55.7463 64.6295 55.6645 64.7113 55.3988C64.5478 55.2149 64.1185 55.2557 63.9142 55.0922C64.0164 54.8265 64.2412 54.663 64.5069 54.663ZM37.7108 59.0779C37.6699 59.3845 37.4859 59.5685 37.4042 59.7933C37.3633 60.0386 37.302 60.2634 37.2407 60.4882C37.0567 60.897 36.9136 61.2649 36.7297 61.735C36.6071 62.0621 36.5049 62.4913 36.1369 62.5731C35.9121 62.6139 35.6873 62.5731 35.5033 62.4504C35.4011 62.3278 35.4624 62.1234 35.4624 61.8986C35.442 61.5511 35.2785 61.2649 35.3398 60.9992C35.3602 60.8357 35.5442 60.6518 35.5646 60.5291C35.6668 60.0795 35.4011 59.7933 35.442 59.5071C35.5033 59.0779 35.8508 59.1392 36.1574 59.037C36.7092 58.8122 36.8932 58.1581 37.1998 57.872C37.2202 57.8311 37.2202 57.8516 37.2611 57.8311C37.8334 57.688 37.7721 58.6691 37.7108 59.0779ZM47.7261 52.1081C47.3582 52.0468 47.583 50.5138 47.8487 50.3912H47.9101C48.1553 50.5138 48.1553 50.9226 48.1758 51.1474C48.1962 51.3927 48.094 52.1694 47.7261 52.1081ZM60.2555 58.199C59.6423 58.199 60.3577 57.3201 60.4599 58.0559C60.3986 58.1377 60.3372 58.199 60.2555 58.199ZM61.4614 58.2808C61.4614 57.8107 62.1768 57.034 62.5447 57.6676C62.4425 58.0151 61.8089 58.199 61.4614 58.2808ZM60.6234 54.0703C61.2161 54.2542 61.5841 54.0089 62.2177 54.0498C62.3403 54.5404 60.0715 54.7448 60.6234 54.0703ZM63.3827 53.8045C63.628 54.152 63.4236 54.847 62.9535 54.8674C62.8309 54.4586 63.0148 54.0089 63.3827 53.8045ZM62.0337 52.3533C61.9724 52.2307 61.8906 52.1081 61.8498 51.9854C61.6658 51.8832 61.3183 51.8832 61.0731 51.8219C61.1139 51.3927 61.6658 51.2292 62.0133 51.4744C62.2177 51.4336 62.2586 51.2087 62.4016 51.1065C62.6265 51.2087 62.7082 51.4336 62.8513 51.6175C62.7082 52.0059 62.606 52.4351 62.0337 52.3533ZM61.7476 50.4116C61.8906 50.5955 61.9928 50.8204 62.0542 51.0248C61.7885 51.0248 61.5023 50.9839 61.2366 50.9226C61.1548 50.6569 61.3797 50.2276 61.7476 50.4116ZM62.6878 50.1459C62.8513 50.432 62.463 50.7386 62.1155 50.5342C61.9724 50.1459 62.4834 49.7984 62.6878 50.1459ZM61.5227 45.4448C61.5227 45.874 61.441 46.385 60.93 46.4463C60.7869 45.9967 61.0322 45.4448 61.5227 45.4448ZM60.5621 48.7151C60.6234 48.3268 61.3592 48.3472 61.257 47.7545C61.6045 47.8158 61.8293 47.9793 61.768 48.3676C61.5432 48.5925 61.114 48.756 61.257 49.1852C61.5636 49.1239 61.8702 49.2874 62.1972 49.3487C62.1359 49.7167 61.7885 49.5531 61.5432 49.6758C61.1957 49.8393 60.9709 50.5138 60.5212 50.4934C60.6438 50.1254 60.9709 49.9824 61.1957 49.7167C61.0526 49.3283 60.4599 49.1443 60.5621 48.7151ZM61.5636 54.8878C61.5841 54.9492 61.5841 55.0105 61.6249 55.0514C61.5227 55.2149 61.2161 55.2353 60.9709 55.1536C60.93 55.3579 61.2775 55.4601 61.3797 55.6237C61.2775 55.8076 61.5841 56.1142 61.5432 56.4412C60.9709 56.5434 60.8482 56.012 60.8074 55.5623C60.4599 55.5623 60.4394 55.9302 60.0511 55.8689C59.9489 55.5215 60.2555 55.0718 60.3373 54.7039C60.6643 54.9696 61.1957 54.7039 61.5636 54.8878ZM57.0261 53.5593C57.2305 53.6001 57.3122 53.7432 57.4962 53.8045C57.6392 53.7023 57.6188 53.4775 57.7619 53.3753C57.905 53.2731 58.1298 53.2936 58.2729 53.2118C58.4568 53.1096 58.4773 52.8439 58.6612 52.7212C58.9269 52.5577 59.0904 52.7417 59.3562 52.5986C59.3357 52.4555 59.2744 52.3942 59.2744 52.2307C59.397 52.0876 59.4992 51.9037 59.8058 51.9446C59.7445 52.2103 59.9898 52.4964 59.8671 52.5986C59.9693 52.6804 60.1329 52.6191 60.2351 52.6191C60.1942 52.9052 59.8671 52.8234 59.8058 53.0483C59.7036 53.3549 60.0511 53.7432 60.0715 54.0498C59.9693 54.5199 59.5197 54.4995 59.3766 54.847C59.2744 55.0922 59.4379 55.5215 59.2335 55.7667C58.8656 55.8689 58.559 55.7054 58.2524 55.6645C58.1093 55.6645 57.9867 55.6645 57.8436 55.6441C57.0874 55.3784 56.8625 54.3155 57.0261 53.5593ZM53.7149 50.5342C54.1032 50.6364 54.2054 50.9839 54.4302 51.2087C54.4302 51.2496 54.3689 51.2292 54.3689 51.2701C54.4711 51.4744 54.6346 51.638 54.8186 51.7402C55.1456 52.3738 55.2887 53.0892 55.5953 53.8045C55.534 53.8659 55.4318 53.8659 55.3909 53.9272C55.0843 53.6819 54.7777 53.5593 54.5733 53.2527C54.1441 52.6191 54.2872 51.5562 53.6331 51.1883C53.5514 50.943 53.5514 50.6977 53.7149 50.5342ZM55.2887 56.1551C55.0026 55.9098 54.512 55.8894 54.185 55.6441C53.8988 55.1127 54.0215 54.5199 53.8988 53.9885C53.6944 53.1914 52.7133 52.8643 52.5294 52.0876C52.7133 51.9854 52.8769 52.0876 53.0608 52.1489C53.0608 52.1898 52.9995 52.1694 52.9995 52.2103C53.1834 52.3125 53.3674 52.4555 53.49 52.6191C53.6331 52.5986 53.6127 52.7008 53.7149 52.7008C53.8579 52.8643 54.001 53.0278 54.1645 53.1709C54.2054 53.2322 54.1441 53.2936 54.2259 53.3753C54.4916 53.7432 54.9208 53.8863 55.2069 54.2133C55.4113 54.4586 55.5135 54.8878 56.045 54.9287C56.2085 55.2353 55.8201 55.3988 55.7793 55.685C55.7179 55.9711 55.8815 56.2982 55.5953 56.4821C55.3909 56.5026 55.4113 56.2777 55.2887 56.1551ZM57.0261 57.0135C56.6581 57.1975 55.7588 57.1771 55.7179 56.7274C55.6771 56.5434 55.7997 56.3799 55.9632 56.339C56.0041 56.339 56.0245 56.339 56.0654 56.339C56.1267 56.4208 56.1267 56.6047 56.2494 56.7069C56.5151 56.7274 56.7808 56.7887 57.0261 56.9113C57.1283 56.8909 57.2305 56.85 57.3326 56.7887C57.7823 56.9931 58.6612 56.85 58.6203 57.4836C58.1093 57.4836 57.1896 57.5041 57.0261 57.0135Z" fill="#05A9C5"/>
<path d="M25.4471 33.3038C25.304 33.0789 25.0383 32.5884 25.3245 32.2409C25.488 32.057 25.7946 32.0161 26.1216 32.0774C26.2238 32.4044 25.9172 32.6702 26.1216 32.9359C27.0414 33.222 28.2677 32.8132 29.1671 33.1403C29.2488 32.6497 29.2693 32.0774 29.6985 32.0161C30.0051 31.9752 30.2912 32.3431 30.557 32.057C30.5161 31.8321 30.2504 31.8117 30.1277 31.6482C30.5774 31.362 31.5585 31.6482 32.1308 31.4847C32.1308 31.2394 31.9877 31.1372 31.8446 31.0146C31.1293 30.9737 30.4752 30.9941 30.0051 31.219C29.8211 30.9124 29.4532 30.4831 29.6576 30.1152C29.862 29.7473 30.9249 29.6451 31.0271 29.1546C30.7614 28.9911 30.2504 29.0524 29.8825 29.0728C29.9438 29.5225 29.6576 29.9517 29.2284 30.0743C28.8196 30.197 28.2882 30.1357 28.3086 30.6466C28.4108 30.7897 28.6765 30.7897 28.7992 30.8919C28.9627 31.4233 28.3086 31.546 28.1451 31.9139C28.1042 32.057 28.2269 32.0365 28.2064 32.1796C27.8794 32.568 27.1027 32.6293 26.4895 32.6088C26.5304 32.1183 26.3464 31.7708 26.2442 31.3211C25.9376 31.362 25.8559 31.6073 25.7128 31.8117C25.4267 31.8935 25.1405 31.873 24.8748 31.7299C24.8544 31.7095 24.8339 31.7095 24.8135 31.6891V33.2016C24.9566 33.1607 25.1609 33.1811 25.4471 33.3038Z" fill="#05A9C5"/>
<path d="M25.4062 54.3769C25.5289 54.6834 25.6311 54.99 25.6924 55.3171C25.7333 55.5828 25.6311 55.8894 25.6515 56.1551C25.6719 56.4208 25.9377 56.7069 25.8763 56.9318C25.815 57.1566 25.5698 57.2179 25.4471 57.4019C24.65 58.4647 25.4676 60.1203 25.9581 60.7948C26.1012 60.9992 26.3465 61.265 26.3669 61.4898C26.4078 61.8168 26.0399 62.1438 26.0807 62.5322C26.1012 62.8388 26.51 63.2271 26.6735 63.5542C27.021 64.3104 26.6122 65.455 27.5933 65.5572C27.9203 65.3733 28.3086 65.0667 28.7992 65.0667C29.208 65.0667 29.7394 65.2098 30.1277 64.9645C30.5161 64.7397 30.8227 64.2491 31.0475 63.9834C31.2724 63.7177 31.9469 63.268 31.9264 62.9001C31.906 62.6753 31.5176 62.4913 31.722 62.1847C32.0286 62.0008 32.56 62.0417 32.7849 61.7964C32.6214 61.6124 32.7644 61.4693 32.744 61.2445C32.7236 61.0197 32.5396 60.7948 32.5396 60.6313C32.5396 60.4269 32.928 59.9364 33.2345 59.6707C33.8886 59.0984 34.8901 58.7305 34.5018 57.4223C34.6244 57.2793 34.6857 57.0749 34.6653 56.8909C34.4609 56.7683 34.3383 56.5639 34.277 56.3186C34.277 55.9916 34.0521 55.7054 34.0521 55.501C34.0521 55.2353 34.2565 54.9696 34.2565 54.6834C35.0741 54.1725 35.3602 53.0892 36.2187 52.6395C36.5866 52.4351 36.9545 52.3329 37.1589 51.9446C37.1589 51.5562 37.4451 51.4131 37.6699 51.0657C37.8947 50.7182 38.1605 50.4116 38.2626 49.9824C38.324 49.6962 38.467 49.3896 38.4057 49.083C37.7312 49.0217 37.1589 49.4509 36.6071 49.594C36.4027 49.6553 35.8917 49.7984 35.769 49.4509C35.7486 49.3487 35.8508 49.1035 35.8304 48.8786C35.6873 48.6947 35.4216 48.4085 35.4829 48.245C35.2172 47.8975 34.6244 47.591 34.7266 47.1413C34.5222 46.7325 33.9499 46.6303 33.7455 46.2215C33.7455 45.731 33.8682 45.0156 33.6842 44.5864C33.5207 44.4637 33.4389 44.2593 33.4798 44.0549C33.4389 43.6666 33.071 43.4009 33.0915 43.0534C33.1937 42.9512 33.4185 42.9308 33.6433 42.9512C33.9499 43.4417 33.9499 44.1776 34.42 44.525C34.3792 45.6901 35.3602 46.0989 35.5851 46.9778C35.7077 47.5092 35.6055 48.1428 35.9734 48.6742C36.791 48.7356 37.3633 48.2859 37.9356 48.0611C38.1605 47.9793 38.4057 47.9793 38.651 47.8975C38.8145 47.8362 38.9372 47.6931 39.1007 47.6318C39.5912 47.4479 40.0204 47.2844 40.3679 46.9573C40.6541 46.6099 40.9198 46.242 41.1446 45.8332C41.2468 45.6696 41.4512 45.5266 41.4512 45.3631C41.4512 44.8929 40.6745 44.8112 40.327 44.5455C40.3884 44.4024 40.3475 44.2389 40.2044 44.1571C39.8365 44.4228 39.5708 44.8112 39.0189 44.8725C38.9167 44.8112 38.9167 44.6681 38.8963 44.5455C38.8554 44.4637 38.7123 44.382 38.835 44.3411C38.5897 44.2798 38.5284 43.9527 38.4262 43.7483C38.3444 43.6053 38.1605 43.5031 38.0787 43.3804C38.0583 43.3396 38.0787 43.2578 38.0583 43.2169C37.8539 42.849 37.629 42.3993 38.2626 42.338C38.4875 42.5015 38.4466 42.9512 38.7328 43.2169C38.8963 43.36 39.0802 43.4826 39.2642 43.5848C39.4481 43.7075 39.6934 43.9323 39.816 43.9323C40.0409 43.9323 40.1635 43.6666 40.4292 43.6666C40.7563 43.8097 40.7154 44.2593 41.1037 44.4433C41.3899 44.5659 42.3301 44.6477 42.8002 44.6272C43.1272 44.6068 43.2294 44.3411 43.4338 44.3002C43.6995 44.4433 43.7609 44.7294 43.9448 44.9338C44.1697 45.036 44.4149 44.9951 44.5171 45.22C44.6806 45.5879 44.4149 46.1398 44.885 46.2011C45.1712 46.2215 45.2938 45.8127 45.5187 45.8127C45.5391 46.2011 45.4369 46.5281 45.4369 46.8551C45.4165 48.2041 46.3158 49.2465 46.6224 50.2685C46.7246 50.5751 46.5815 50.8817 46.8268 51.1474C47.1334 51.0657 47.2356 50.6978 47.44 50.3707C47.6035 50.105 47.9305 49.7984 47.9918 49.4918C48.0736 49.0626 47.9305 48.6129 47.951 48.1837C48.1145 47.8158 48.4211 47.8567 48.7276 47.6523C48.932 47.5296 49.0547 47.2639 49.2591 47.0391C49.4226 46.8756 49.627 46.7938 49.7496 46.6507C49.8723 46.5077 49.9131 46.3033 50.0767 46.2215C50.3424 46.058 50.7716 46.1806 51.1395 46.1398C51.303 46.0376 51.3848 45.874 51.5892 45.8127C51.7731 45.9558 51.7118 46.1193 51.7936 46.3033C51.998 46.7325 52.4272 47.0186 52.4885 47.5296C52.5498 48.0406 52.2432 48.6334 52.4067 49.2465C52.8973 48.94 52.7747 47.9793 53.5514 47.9793C53.7149 48.6947 53.4083 50.0233 54.0419 50.432C54.2054 50.0641 54.3076 49.6758 54.4098 49.2874C55.2887 49.6962 55.4931 50.6978 55.7179 51.6584C56.045 51.3518 56.2698 50.9635 56.4129 50.5342C56.6786 50.3503 57.0261 50.4729 57.2305 50.2276C57.4553 49.9619 57.3327 49.5736 57.5166 49.2465C57.5166 48.94 57.2509 48.756 57.1487 48.6129C57.0465 48.4903 57.0669 48.3472 56.9647 48.1633C56.7604 47.7953 56.3107 47.6114 56.2698 47.2026C56.2698 47.2435 56.372 47.08 56.2698 47.0391C56.3924 46.896 56.5355 46.7938 56.699 46.6712C56.7399 46.6303 56.9239 46.2828 57.1487 46.3033C57.7414 46.385 56.9443 47.2026 57.0261 47.6114C57.0261 47.7749 57.1487 47.8975 57.3122 47.918C57.6597 47.9384 57.6597 47.4683 57.8845 47.2639C57.6597 47.0391 57.5984 46.4463 58.0685 46.3646C58.2116 46.3646 58.3342 46.385 58.4773 46.4259C58.9474 46.4055 59.4175 46.2624 59.8263 46.0171C60.0715 45.8536 60.1942 45.5674 60.3986 45.3631C60.8278 44.9338 61.5432 44.525 61.7476 43.9527C61.5227 43.6666 61.8498 43.0943 61.6658 42.8694C61.3592 42.4607 61.2979 42.0927 61.0118 41.684C61.3592 41.5409 62.1564 41.3978 61.8293 40.8664C61.2775 40.9686 60.6438 40.8868 60.5008 40.3554C60.5621 40.1306 60.8278 40.151 61.0322 40.0692C61.3388 39.9262 61.5227 39.5378 61.8293 39.5378C61.768 39.7831 61.5432 40.0897 61.6863 40.3349C62.095 40.2941 62.2586 40.0284 62.5856 39.9262C62.8513 40.2532 62.5652 40.6211 62.6265 41.0095C62.8309 40.989 62.8717 40.8051 63.0761 40.8051C63.1988 41.0299 63.2805 41.0708 63.2805 41.2752C63.2805 41.5409 62.9535 41.7044 62.9739 41.9292C63.0353 42.0927 63.1579 42.1949 63.3419 42.2358C63.812 42.2767 64.2208 41.6022 64.2208 41.0299C63.955 40.8051 63.7915 40.4576 63.7506 40.1101C63.9142 40.0488 64.0777 39.9875 64.2412 39.9057C64.3025 39.313 64.8748 39.2721 65.161 38.9246C65.6924 39.4356 66.0194 38.9246 66.326 38.6589C66.837 38.2092 67.7159 37.6778 67.9612 37.1055C67.9407 36.758 68.2064 36.4515 68.3086 36.1244C68.3086 36.0222 68.2269 35.8178 68.3291 35.7361C68.7583 36.3493 67.8794 37.9844 68.8605 38.1684C68.9423 37.8822 68.7583 37.5552 68.8605 37.269C68.9014 37.126 69.1058 37.0851 69.1467 36.9624C69.1467 36.8807 69.1671 36.8194 69.1467 36.7376C69.1875 36.4106 69.0445 36.104 68.7787 35.92C68.9014 35.8178 69.0036 35.7156 69.0649 35.5726C69.0036 35.4908 68.9627 35.409 68.9423 35.3068C68.7174 35.2864 68.4926 35.3273 68.2882 35.409C68.1451 34.8367 67.5524 35.266 67.1436 35.1842C67.0618 35.1024 67.0823 34.9389 67.0618 34.8163C66.8574 34.8572 66.653 35.1433 66.51 34.8572C66.6735 34.4893 67.1232 34.4893 67.4502 34.3258C67.9612 34.0805 68.2473 33.549 68.7583 33.3242C69.3511 33.3242 69.9438 33.4673 70.4957 33.4469C70.557 33.4469 70.6183 33.4264 70.6796 33.4264V28.3779C70.3526 28.337 69.9438 28.4801 69.6576 28.3983C69.4737 28.153 68.8605 28.1122 68.8401 27.8056C69.1875 27.7851 69.5146 27.7238 69.8416 27.6012C69.4737 26.9675 68.4108 27.1106 67.6341 27.1106C67.4706 27.1106 67.5524 26.9062 67.3684 26.9471C67.2049 27.0084 67.1232 27.1924 67.1436 27.3559C67.3071 27.642 68.0225 27.4581 68.2064 27.7238C68.2473 28.0713 68.1247 28.5414 67.7568 28.6231C67.675 28.6436 67.5728 28.5618 67.4297 28.5823C67.2867 28.5823 67.1027 28.7049 66.9392 28.7253C66.7757 28.7458 66.1421 28.7458 66.1216 28.7458C65.9581 28.7049 65.9377 28.4596 65.7946 28.5005C65.5698 28.6231 65.4471 28.8889 65.161 28.8889C64.5273 28.8684 64.7931 28.1735 64.5682 27.7442C63.8937 27.6829 63.2805 27.5603 62.7287 27.7442C62.606 27.7851 62.5038 27.9078 62.3812 27.9486C61.952 28.0917 61.8498 27.8669 61.5432 27.7442C60.9096 27.499 60.0715 27.6829 59.4584 27.4172C59.5401 27.1515 60.0102 27.0902 59.9285 26.7427C59.8263 26.3544 57.8028 26.2522 57.4349 26.4566C57.1283 26.1295 56.6786 25.9865 56.2289 26.0682C56.1676 26.0478 56.0858 26.0478 56.1063 25.966C55.6362 26.4361 54.2054 26.7632 53.8988 25.8843C53.5718 26.1295 53.2448 26.5588 52.7542 26.5588C52.6316 26.5383 52.5294 26.5179 52.4272 26.477C51.3439 26.3339 50.9147 27.0697 50.1175 27.1311C49.6883 27.1515 49.3 26.9267 48.8912 27.1311C48.8912 27.499 49.7087 27.5807 49.9131 27.9078C50.0153 28.0713 50.0767 28.4392 49.8518 28.4801C49.5861 28.5209 49.5861 28.1939 49.5657 27.9486C49.3204 27.826 49.0547 27.7238 48.789 27.6421C48.6663 27.3763 48.3189 26.988 47.951 27.2537C47.767 27.3968 47.8488 27.6829 47.6852 27.8873C47.6035 27.9282 47.5013 27.9282 47.4195 27.9486C47.1334 27.7851 47.3378 27.3763 47.256 27.1719C46.6224 27.4377 46.929 28.1326 46.8472 28.7458C47.1742 28.5823 47.5422 28.2757 48.0736 28.4187C48.1145 28.6231 48.2167 28.7662 48.2575 28.9706C47.7874 29.359 47.583 28.7253 47.2764 28.7253C46.8881 28.7253 46.6837 29.3181 46.3567 29.5429C46.1523 29.686 45.8866 29.7473 45.6413 29.7269C45.8048 29.2976 46.2954 29.2159 46.4997 28.848C46.3567 28.337 46.3567 27.8056 46.5406 27.315C46.2136 27.2128 46.0705 26.804 45.723 26.804C45.3143 26.8245 45.1507 27.4581 44.742 27.5807C43.8017 27.8669 45.1099 28.3166 45.069 28.6845C44.6602 28.7662 44.5376 28.6436 44.231 28.5209C44.0675 28.4596 43.9039 28.4596 43.72 28.3983C43.4134 28.3166 43.1068 27.9895 42.5754 28.153C42.3505 28.2348 42.187 28.6027 41.9418 28.6027C41.7987 28.6231 41.6352 28.4596 41.4716 28.3983C41.2264 28.5823 40.5314 28.3166 40.3679 28.6027C39.6117 28.1735 39.1415 28.848 38.2218 28.6027C37.9765 28.6845 37.9765 29.0319 37.6903 29.0524C37.6086 28.8071 37.9152 28.5414 37.8539 28.3574C37.7517 28.1326 37.1998 28.1939 37.0158 28.2757C36.8523 28.6436 37.2816 29.1137 36.9954 29.359C36.8319 29.2772 36.8728 29.0115 36.7093 28.9502C36.3618 29.0319 36.0756 29.175 35.7486 29.2568C35.7077 29.3998 35.6873 29.5429 35.6873 29.7064C35.3602 29.9313 35.115 29.5838 34.8493 29.502C34.6857 29.6042 34.5836 29.7473 34.2974 29.7269C34.1952 29.6451 34.2974 29.359 34.2156 29.2363C34.1339 29.1341 33.8682 29.0319 33.9295 28.9093C34.7471 29.2363 35.6464 29.175 36.4027 28.7458C36.0961 28.5005 35.8917 28.0917 35.3807 28.0304C34.7062 27.9282 33.8273 28.2348 33.5411 27.6829C33.071 27.499 32.56 27.2128 31.9469 27.0697C31.4972 26.9675 31.0884 26.661 30.5979 26.6814C30.1482 26.7018 29.6168 26.9471 29.1262 27.1515C28.6765 27.3355 28.0225 27.5807 27.7772 27.7851C27.5933 27.9282 27.5115 28.153 27.3684 28.3165C27.2049 28.4596 27.0414 28.6027 26.837 28.7049C26.3873 28.9706 25.9785 28.9911 25.4471 29.175C25.2427 29.2568 24.9566 29.4612 24.7317 29.7064V31.5664C24.7522 31.5869 24.7726 31.6073 24.7931 31.6073C25.0588 31.7299 25.3654 31.7708 25.6311 31.6891C25.7741 31.4847 25.8559 31.2394 26.1625 31.1985C26.2647 31.6482 26.4486 32.0161 26.4078 32.4862C27.021 32.5066 27.7977 32.4453 28.1247 32.057C28.1656 31.9343 28.0225 31.9343 28.0634 31.7913C28.2269 31.4233 28.9014 31.3007 28.7174 30.7693C28.5744 30.6671 28.3086 30.6671 28.2269 30.524C28.186 30.013 28.7379 30.0948 29.1467 29.9517C29.5759 29.8291 29.862 29.3998 29.8007 28.9502C30.1686 28.9502 30.6796 28.8684 30.9453 29.0319C30.8431 29.502 29.7598 29.6247 29.5759 29.9926C29.3919 30.3605 29.7394 30.7897 29.9234 31.0963C30.3935 30.8715 31.0475 30.851 31.7629 30.8919C31.906 31.0146 32.0491 31.1168 32.0491 31.362C31.4768 31.5255 30.4752 31.2394 30.046 31.5255C30.1686 31.6891 30.4343 31.7095 30.4752 31.9343C30.2095 32.2205 29.9234 31.8526 29.6168 31.8935C29.1875 31.9548 29.1875 32.5271 29.0853 33.0176C28.186 32.6906 26.9596 33.0994 26.0399 32.8132C25.8355 32.5475 26.1421 32.2818 26.0399 31.9548C25.7128 31.8935 25.4062 31.9139 25.2427 32.1183C24.9566 32.4658 25.2223 32.9563 25.3654 33.1811C25.0792 33.0585 24.8748 33.0381 24.7113 33.0789V37.0238C24.8748 36.9216 25.0383 36.758 25.2427 36.758C25.6106 36.758 25.6311 37.126 25.7537 37.3303C25.8968 37.5143 26.0603 37.6778 26.2647 37.8005C26.4486 37.9027 26.8779 37.964 27.1232 38.1684C27.4502 38.4341 27.348 39.129 27.8181 39.2517C27.8385 38.9042 27.7772 38.618 27.7977 38.291C27.9816 38.291 28.186 38.3319 28.2473 38.2092C28.0429 38.0662 27.6546 37.9231 27.5319 37.7596C27.5115 37.7391 27.6137 37.7187 27.5933 37.6983C27.4502 37.5756 27.2662 37.5347 27.1232 37.4121C26.8779 37.1873 26.7552 36.8807 26.4078 36.6763C26.4895 36.5945 26.2443 36.3697 26.4282 36.2675C26.837 36.2879 27.0823 36.7376 27.4093 37.0238C27.7363 37.269 28.0429 37.5347 28.3086 37.8413C28.4313 37.9844 28.4517 38.1888 28.5539 38.3932C28.6561 38.5158 28.7379 38.6589 28.7992 38.7816C28.9218 39.1495 28.7992 39.5991 28.9423 40.0488C29.1467 40.0488 29.3511 39.8444 29.535 39.7013C29.719 39.5583 30.046 39.4356 30.1073 39.2721C30.2095 39.0064 29.8825 38.802 29.7394 38.5567C30.046 38.4545 30.2095 38.2297 30.5365 38.1479C30.8227 38.3319 30.5979 38.9451 30.6796 39.313C31.1497 39.4969 31.4972 40.1714 32.1513 39.9057C32.6418 40.1919 33.2959 39.967 33.7047 39.9262C33.7864 40.7846 33.3776 41.4182 32.9688 41.8679C32.8258 41.8679 32.6622 41.8679 32.5192 41.9088C32.4783 41.7861 32.3761 41.684 32.2535 41.6431C31.8242 41.7453 31.4768 41.7453 31.1906 41.9497C31.0066 42.0927 30.9249 42.4811 30.5979 42.3789C30.7614 41.9905 31.2724 41.9905 31.395 41.5613C30.884 41.3774 30.2504 41.5204 29.7803 41.3569C29.5554 41.2752 29.4328 41.0708 29.208 41.1116C28.9014 41.4591 28.3904 42.5628 27.9203 41.7862C27.5319 41.7044 27.2049 41.5 26.9392 41.2138C26.4895 41.1525 25.8763 40.9481 25.8763 40.6824C25.6719 40.6007 25.3858 40.4576 25.4676 40.2532C25.5493 40.1306 25.8355 40.2123 25.9785 40.151C26.0603 39.7626 26.0194 39.3743 25.6924 39.2108C25.3654 39.0473 25.0792 39.1903 24.6909 39.2312V51.1474C24.8544 51.2496 24.9974 51.3518 24.977 51.5358C24.977 51.6788 24.7726 51.8015 24.6909 51.9446V53.3753C25.0996 53.5797 25.2427 53.8454 25.4062 54.3769ZM37.4246 36.9216C37.486 36.7172 37.6495 36.4515 37.8334 36.431C38.0583 36.3901 38.1605 36.5536 38.4057 36.5536C38.7532 36.5332 38.8758 36.2266 39.2029 36.104C39.4073 36.1449 39.5912 36.2266 39.7752 36.3288C39.8569 36.5741 40.0818 36.7172 40.1431 36.9829C39.9591 37.0851 39.7547 37.1055 39.5708 37.0442C39.4277 37.0033 39.3664 36.8602 39.2437 36.8602C38.978 36.8398 38.7941 37.0646 38.7328 37.4121C38.7328 37.5143 38.8963 37.4734 38.9985 37.4939C39.2233 37.8209 39.3664 38.1888 39.7752 38.3728C39.7547 38.5567 39.5503 38.5567 39.5095 38.7407C39.7547 39.1495 39.8569 39.5991 39.816 40.0692C39.1415 40.3554 38.3853 39.9466 37.9356 39.6604C37.8947 39.4561 37.9152 39.2312 37.9969 39.0473C38.3035 39.0473 38.5897 38.8837 38.7328 38.5976C38.6714 38.3319 38.3035 38.3728 38.0787 38.1888C37.9561 38.0253 37.8334 37.8618 37.7312 37.6983C37.5268 37.4325 37.3429 37.3303 37.4246 36.9216ZM33.4389 31.2803C33.1323 31.4233 32.6418 31.2598 32.6418 30.9532C32.8462 30.6058 33.4798 30.8919 33.4389 31.2803ZM32.6418 38.2092C32.1513 38.2092 31.7016 38.1275 31.3746 38.3728C31.3132 38.2297 31.4563 38.0253 31.4972 37.8618C31.5381 37.7187 31.395 37.6983 31.3746 37.5961C31.395 37.2282 31.6811 37.1668 31.9264 36.9216C32.2126 36.615 32.1921 36.1449 32.744 36.1653C33.0097 36.3901 33.071 36.758 33.2754 37.0238C33.6842 36.9624 34.0112 36.7172 34.0521 36.3901C34.2361 36.2675 34.4814 36.2266 34.7062 36.2879C34.7062 36.5332 34.3792 36.4719 34.3178 36.6558C34.5018 36.8602 34.8493 36.9829 35.1354 37.2486C35.4829 37.5347 35.9939 37.7391 35.8304 38.3114C35.3398 38.475 34.3996 38.4545 34.0726 38.1275C34.0726 38.0866 34.1339 38.107 34.1339 38.0662C33.7251 37.8005 32.8462 37.8005 32.6418 38.2092ZM32.6827 53.0074C32.7031 53.3958 32.4987 53.7841 32.1513 53.9681C31.6607 53.7023 31.9877 52.5986 32.6827 53.0074Z" fill="#13D0E0"/>
<path d="M41.4717 27.7442C41.4103 27.5399 41.2264 27.4581 41.1242 27.2741C41.6352 26.4974 42.8207 26.2726 44.047 26.4566C44.1697 26.4974 44.2923 26.5179 44.4149 26.5383C44.8646 26.5179 45.1508 26.0887 45.3347 25.8434C44.9668 25.5163 44.7624 25.8229 44.4967 25.9047C44.1492 25.9865 43.8631 25.8434 43.4747 25.8229C43.1886 25.8434 42.9024 25.8843 42.6163 25.9456C42.2688 25.9865 41.8805 25.966 41.6965 26.0273C41.5125 26.0887 41.3695 26.3135 41.1651 26.4566C40.6541 26.804 39.6526 26.8858 39.5504 27.499C40.1227 27.6216 41.0629 28.5005 41.4717 27.7442Z" fill="#13D0E0"/>
<path d="M69.2693 39.4152C69.5554 39.3947 69.6985 39.4152 69.7598 39.2517C69.6985 38.9451 69.2693 38.802 68.9014 38.8633C68.8401 38.3932 68.0838 38.4954 68.1042 39.0473C67.8998 39.1495 67.6137 39.1699 67.5524 39.3947C67.7363 39.8444 68.6152 39.4561 69.2693 39.4152Z" fill="#13D0E0"/>
<path d="M64.8544 43.1352C64.8953 43.033 64.8135 42.7468 64.977 42.6855C65.3858 42.9103 65.7537 42.8081 65.8968 42.4402C66.1012 42.7672 66.5713 42.5628 66.6531 42.2767C67.0823 42.1336 67.5115 41.9497 67.8999 41.7248C67.9408 41.4591 67.9612 41.1934 67.9408 40.9277C68.0021 40.7846 68.2269 40.8051 68.2882 40.662C68.2678 40.2328 67.8999 39.9057 67.9408 39.6196C67.7772 39.5991 67.6342 39.7013 67.5933 39.8648C67.4706 40.3349 67.3889 41.2138 67.021 41.3774C66.6326 41.3569 66.3669 41.7861 66.0194 41.8475C65.7129 41.9088 65.488 41.7248 65.0997 41.7044C64.834 42.011 64.4456 42.1949 64.0777 42.3993C64.0777 42.8694 64.3843 43.5439 64.8544 43.1352Z" fill="#13D0E0"/>
<path d="M25.2632 37.8413C24.3638 38.0457 25.4676 39.1086 25.5289 38.107C25.4267 38.0457 25.3858 37.9027 25.2632 37.8413Z" fill="#13D0E0"/>
<path d="M27.4093 39.2517C27.2867 38.9451 26.7757 38.8429 26.3464 38.9042C26.4895 39.1903 27.2253 39.9466 27.4093 39.2517Z" fill="#13D0E0"/>
<path d="M61.5227 45.4448C61.0322 45.4448 60.7869 46.0171 60.93 46.4463C61.441 46.385 61.5227 45.874 61.5227 45.4448Z" fill="#13D0E0"/>
<path d="M60.5008 50.4934C60.9505 50.5138 61.1753 49.8393 61.5228 49.6758C61.768 49.5531 62.136 49.7167 62.1768 49.3487C61.8498 49.267 61.5432 49.1239 61.2366 49.1852C61.0935 48.756 61.5228 48.5925 61.7476 48.3677C61.8089 47.9589 61.5841 47.7953 61.2366 47.7545C61.3593 48.3472 60.6234 48.3268 60.5417 48.7151C60.4599 49.1648 61.0322 49.3283 61.1753 49.7371C60.9505 49.9824 60.6234 50.1254 60.5008 50.4934Z" fill="#13D0E0"/>
<path d="M62.1155 50.5342C62.463 50.7386 62.8513 50.432 62.6878 50.1459C62.4834 49.7984 61.9724 50.1459 62.1155 50.5342Z" fill="#13D0E0"/>
<path d="M61.7476 50.4116C61.3797 50.2276 61.1549 50.6364 61.2366 50.9226C61.5023 50.9839 61.7885 51.0248 62.0542 51.0248C61.9929 50.8204 61.8907 50.616 61.7476 50.4116Z" fill="#13D0E0"/>
<path d="M54.5529 53.2322C54.7573 53.5388 55.0639 53.6819 55.3704 53.9067C55.4113 53.8454 55.5135 53.8454 55.5748 53.7841C55.2682 53.0892 55.1252 52.3533 54.7981 51.7197C54.6142 51.6175 54.4507 51.454 54.3485 51.2496C54.3485 51.2087 54.4098 51.2292 54.4098 51.1883C54.185 50.9635 54.0828 50.616 53.6944 50.5138C53.5309 50.6569 53.5513 50.9226 53.5922 51.1474C54.2667 51.5562 54.1236 52.5986 54.5529 53.2322Z" fill="#13D0E0"/>
<path d="M47.9101 50.3912H47.8488C47.5831 50.5342 47.3582 52.0468 47.7261 52.1081C48.0941 52.1694 48.1962 51.3927 48.1758 51.127C48.1554 50.9021 48.1554 50.5138 47.9101 50.3912Z" fill="#13D0E0"/>
<path d="M62.4016 51.127C62.2585 51.2292 62.2177 51.4336 62.0133 51.4949C61.6862 51.2496 61.1344 51.4131 61.0731 51.8424C61.3183 51.9037 61.6454 51.9037 61.8498 52.0059C61.9111 52.1285 61.9724 52.2511 62.0337 52.3738C62.606 52.4351 62.7082 52.0263 62.8513 51.638C62.7082 51.454 62.6265 51.2292 62.4016 51.127Z" fill="#13D0E0"/>
<path d="M57.8437 55.6032C57.9867 55.6237 58.1094 55.6237 58.2524 55.6237C58.559 55.6645 58.8656 55.8281 59.2335 55.7259C59.4379 55.4806 59.2949 55.0514 59.3766 54.8061C59.5197 54.4586 59.9694 54.4586 60.0716 54.0089C60.0511 53.7023 59.7241 53.314 59.8058 53.0074C59.8672 52.7826 60.1942 52.8643 60.2351 52.5782C60.1329 52.5782 59.9489 52.6395 59.8672 52.5577C59.9694 52.4555 59.7445 52.1694 59.8058 51.9037C59.4993 51.8628 59.3971 52.0468 59.2744 52.1898C59.2744 52.3533 59.3562 52.4147 59.3562 52.5577C59.0905 52.7008 58.927 52.5169 58.6612 52.6804C58.4773 52.803 58.4364 53.0687 58.2729 53.1709C58.1298 53.2527 57.8845 53.2322 57.7619 53.3344C57.6188 53.4366 57.6597 53.6819 57.4962 53.7637C57.3327 53.7023 57.2305 53.5593 57.0261 53.5184C56.8626 54.3155 57.0874 55.3784 57.8437 55.6032Z" fill="#13D0E0"/>
<path d="M55.7997 55.7054C55.861 55.4193 56.2289 55.2557 56.0654 54.9492C55.5135 54.9083 55.4318 54.479 55.2274 54.2338C54.9412 53.9067 54.512 53.7637 54.2463 53.3958C54.1645 53.314 54.2258 53.2731 54.185 53.1914C54.0214 53.0483 53.8784 52.8848 53.7353 52.7212C53.6331 52.7212 53.6535 52.6191 53.5105 52.6395C53.3878 52.476 53.2039 52.3329 53.0199 52.2307C53.0199 52.1898 53.0812 52.2103 53.0812 52.1694C52.8973 52.1081 52.7133 52.0059 52.5498 52.1081C52.7338 52.8848 53.7148 53.2118 53.9192 54.0089C54.0623 54.5404 53.9397 55.1331 54.2054 55.6645C54.5324 55.8894 55.023 55.9098 55.3091 56.1755C55.4318 56.2777 55.4113 56.5025 55.6362 56.5025C55.9019 56.3186 55.7384 55.9916 55.7997 55.7054Z" fill="#13D0E0"/>
<path d="M63.3827 53.8045C63.0148 54.0089 62.8308 54.4586 62.9535 54.8674C63.4236 54.847 63.628 54.152 63.3827 53.8045Z" fill="#13D0E0"/>
<path d="M62.2177 54.0498C61.5841 53.9885 61.2162 54.2542 60.6234 54.0703C60.0716 54.7448 62.3403 54.5404 62.2177 54.0498Z" fill="#13D0E0"/>
<path d="M64.3638 56.0938C64.5682 56.196 64.8135 56.0529 65.0792 56.0938C65.161 56.1346 65.1405 56.2777 65.2019 56.3186C65.9377 56.4412 66.4487 56.7683 66.5713 57.4019C66.326 57.4223 66.1421 57.4836 66.1421 57.7289C66.4078 57.7494 66.5918 57.688 66.8575 57.7289C67.0005 57.9742 67.0619 58.4239 67.4093 58.4239C67.8386 58.4443 67.9408 57.2792 68.6766 57.6267C68.881 58.2195 69.2693 58.8122 70.046 58.8122C70.1482 57.9742 69.1262 57.7902 69.1467 56.9727C68.697 56.7069 68.4722 56.2573 68.0429 55.9916C68.1451 55.9098 67.6955 55.828 67.4706 55.685C67.3071 55.5419 67.1436 55.4193 66.9392 55.3171C66.4691 55.174 65.9581 55.1331 65.488 55.2353C65.2427 55.0922 64.9566 55.0105 64.6909 55.0105C64.5274 54.9083 64.65 54.7243 64.5069 54.6426C64.2412 54.663 64.0164 54.8265 63.9142 55.0718C64.1186 55.2149 64.5478 55.174 64.7113 55.3784C64.6296 55.6441 64.3434 55.7259 64.3638 56.0938Z" fill="#13D0E0"/>
<path d="M60.0511 55.8894C60.4599 55.9302 60.4599 55.5828 60.8073 55.5828C60.8482 56.0324 60.9709 56.5639 61.5432 56.4617C61.584 56.1346 61.2774 55.8281 61.3796 55.6441C61.2774 55.4806 60.93 55.3784 60.9709 55.174C61.2161 55.2557 61.5227 55.2353 61.6249 55.0718C61.584 55.0309 61.584 54.9696 61.5636 54.9083C61.1753 54.7243 60.6643 54.9696 60.3372 54.7243C60.2555 55.0922 59.9489 55.5419 60.0511 55.8894Z" fill="#13D0E0"/>
<path d="M58.6203 57.4836C58.6612 56.8296 57.7823 56.9931 57.3326 56.7887C57.2304 56.8296 57.1283 56.8705 57.0261 56.9113C56.7808 56.7887 56.5151 56.7274 56.2494 56.7069C56.1267 56.6047 56.1267 56.4208 56.0654 56.339C56.0245 56.339 56.0041 56.339 55.9632 56.339C55.7792 56.3799 55.6771 56.5434 55.7179 56.7274C55.7588 57.1771 56.6581 57.1975 57.0261 57.0135C57.1896 57.5041 58.1093 57.4836 58.6203 57.4836Z" fill="#13D0E0"/>
<path d="M61.4614 58.2808C61.8089 58.199 62.4425 58.0151 62.5447 57.6676C62.1768 57.034 61.4614 57.8107 61.4614 58.2808Z" fill="#13D0E0"/>
<path d="M60.2555 58.199C60.3372 58.199 60.3781 58.1377 60.4599 58.0559C60.3577 57.3201 59.6423 58.199 60.2555 58.199Z" fill="#13D0E0"/>
<path d="M70.5774 64.1673C70.4957 63.7994 70.1686 63.5746 70.1073 63.268C70.046 62.9614 70.1278 62.6548 69.9847 62.3687C69.6781 62.1438 69.2693 62.2052 68.9627 61.9599C68.5744 61.6533 68.7583 60.9788 68.5539 60.57C68.4926 60.4269 68.3086 60.3247 68.2269 60.1612C68.1043 59.9159 67.8794 59.6502 67.7159 59.405C67.5728 59.1392 67.6955 58.7918 67.4911 58.6283C67.2662 58.9553 67.164 59.3436 67.2049 59.732C67.2254 59.8546 67.3276 59.9773 67.3276 60.0999C67.3276 60.5496 67.1232 60.9584 66.7961 61.2649C66.5713 61.2241 66.5713 60.9992 66.4078 60.8562C66.1012 60.57 65.4062 60.4882 65.3858 60.1408C65.3654 59.7933 65.815 59.6911 65.672 59.2619C65.4471 59.0575 64.9975 59.1801 64.6909 59.1801C64.4865 59.1188 64.5069 58.8326 64.4047 58.8531C64.139 58.8735 64.2412 59.0575 64.139 59.3436C63.8937 59.3028 63.812 58.8327 63.6485 58.9348L63.628 59.2619C63.301 59.3845 63.3419 60.0386 63.0148 60.059C62.7082 60.0795 62.7696 59.5889 62.463 59.548C62.0133 59.4867 61.8702 60.0181 61.6454 60.4065C61.2775 60.4065 61.0322 60.1817 60.6643 60.2634C60.4803 60.6313 60.6234 61.1832 60.603 61.6124C59.9898 61.5715 59.7445 61.9394 59.0291 61.7964C58.6612 62.0825 58.1707 62.2665 57.8641 62.5731C57.7415 62.6957 57.4349 63.0636 57.4962 63.2884C57.5371 63.4724 58.0685 63.6564 58.0685 63.9016C58.0685 63.8608 57.9254 64.0856 57.9663 64.0243C57.7006 64.4944 58.232 64.7396 58.3138 65.128C58.3342 65.2302 58.2729 65.3937 58.3342 65.5368C58.4364 65.8434 58.743 65.9456 58.7021 66.1704C58.6817 66.4361 58.2116 66.4974 58.1707 66.7836C58.1298 67.0697 58.3751 67.1515 58.5795 67.4172C59.254 67.6421 59.6219 67.0289 60.0511 67.0084C60.419 66.988 60.7256 67.3355 61.1548 67.2946C61.1344 66.9267 61.3797 66.5383 61.5432 66.2522C62.3812 66.4157 62.7287 66.0069 63.5871 66.0273C63.6689 66.4974 64.5682 66.3748 64.6295 66.8449C64.65 67.0289 64.5069 67.1515 64.466 67.3763C65.0997 67.5807 65.0588 66.804 65.5902 66.7836C65.5698 66.988 65.5698 67.2128 65.5902 67.4172C65.7946 67.4581 65.7333 67.2333 65.8764 67.2333C65.8355 67.4172 65.9786 67.4581 65.9581 67.6216C66.326 67.6829 66.3465 68.0713 66.3465 68.4392H66.9392C69.024 68.4392 70.7205 66.7427 70.7205 64.6579V64.617C70.6387 64.5148 70.557 64.4126 70.5365 64.29C70.5365 64.2082 70.5774 64.1878 70.5774 64.1673Z" fill="#13D0E0"/>
<path d="M37.2611 57.8515C37.2202 57.872 37.2202 57.8516 37.1998 57.8924C36.8932 58.1786 36.7093 58.8326 36.1574 59.0575C35.8508 59.1801 35.5033 59.0984 35.442 59.5276C35.4011 59.8137 35.6668 60.0999 35.5646 60.5496C35.5442 60.6722 35.3603 60.8561 35.3398 61.0197C35.2989 61.2854 35.4625 61.5715 35.4625 61.919C35.4625 62.1438 35.4011 62.3482 35.5033 62.4709C35.6873 62.5935 35.9121 62.6344 36.137 62.5935C36.5049 62.4913 36.6071 62.0825 36.7297 61.7555C36.8932 61.2649 37.0567 60.9175 37.2407 60.5087C37.302 60.2838 37.3633 60.0386 37.4042 59.8137C37.486 59.5889 37.6699 59.4049 37.7108 59.0984C37.7721 58.6691 37.8334 57.688 37.2611 57.8515Z" fill="#13D0E0"/>
<path d="M43.6587 52.3738C44.558 52.3738 45.3347 52.0468 45.9683 51.4131C46.6019 50.7795 46.9085 50.0233 46.9085 49.1444V36.4923H51.998V49.1444C51.998 51.454 51.1804 53.4162 49.5452 55.0309C47.9101 56.6456 45.9479 57.4632 43.6587 57.4632C41.4512 57.4632 39.5299 56.6865 37.8947 55.1331C36.28 56.6865 34.3587 57.4632 32.1308 57.4632C29.862 57.4632 27.8998 56.6456 26.2647 55.0309C24.6295 53.4162 23.812 51.454 23.812 49.1444V36.4923H28.9014V49.1444C28.9014 50.0233 29.208 50.7795 29.8416 51.4131C30.4752 52.0468 31.2315 52.3738 32.1104 52.3738C33.0097 52.3738 33.7864 52.0468 34.42 51.4131C35.0536 50.7795 35.3602 50.0233 35.3602 49.1444V36.4923H40.4497V49.1444C40.4497 50.0233 40.7563 50.7795 41.3899 51.4131C42.0031 52.0468 42.7593 52.3738 43.6587 52.3738Z" fill="white"/>
<path d="M63.3419 36.5332H71.8038V41.6226H63.3419C61.6045 41.6226 60.2759 42.4811 59.3766 44.198H67.9612V49.2874H59.3766C60.2759 50.9839 61.6045 51.8424 63.3419 51.8424H71.8038V56.9318H63.3419C60.603 56.9318 58.3138 55.9302 56.4333 53.9067C54.5529 51.8832 53.6331 49.4918 53.6331 46.7529C53.6331 43.9936 54.5733 41.6022 56.4333 39.5787C58.3138 37.5552 60.6234 36.5332 63.3419 36.5332Z" fill="white"/>
<path d="M85.5595 66.4157C85.2734 66.4157 84.9872 66.3748 84.7215 66.2522C84.5171 66.15 84.3127 66.0069 84.1492 65.8434C84.0061 65.6799 83.8835 65.5163 83.7813 65.3324C83.6995 65.1689 83.6178 65.0258 83.5565 64.8623C83.5156 64.7601 83.4338 64.5761 83.3112 64.3104C83.1886 64.0447 83.0455 63.7177 82.9024 63.3702L82.3914 62.2256C82.2075 61.8168 82.044 61.4285 81.8804 61.0605C81.7169 60.6926 81.5738 60.3656 81.4512 60.0795C81.3286 59.7933 81.2264 59.5889 81.1855 59.4663C81.0833 59.1801 80.9198 58.9144 80.7154 58.6896C80.5723 58.5261 80.3475 58.4443 80.1226 58.4443C79.8569 58.4239 79.5912 58.5465 79.4073 58.7509C79.2233 58.9348 79.1416 59.2006 79.1416 59.4663V66.477H78.324V59.4663C78.324 59.2414 78.3648 58.9962 78.4466 58.7713C78.6101 58.3421 78.9167 58.0151 79.3459 57.8311C79.5708 57.7289 79.8161 57.688 80.0613 57.688C80.2862 57.688 80.4906 57.7085 80.7154 57.7698C80.8993 57.8107 81.0833 57.9129 81.2468 58.0355C81.4308 58.199 81.5738 58.3625 81.7169 58.5669C81.8804 58.8531 82.044 59.1392 82.1666 59.4458L82.4732 60.1408L82.9024 61.1219C83.0659 61.4693 83.209 61.8372 83.393 62.2256C83.5565 62.5935 83.72 62.941 83.8631 63.268C84.0061 63.595 84.1288 63.8608 84.231 64.106C84.3332 64.3309 84.3945 64.4944 84.4354 64.5557C84.558 64.8623 84.7215 65.1484 84.9259 65.4141C85.069 65.5981 85.2938 65.7003 85.5391 65.7003C85.8048 65.7207 86.0705 65.5981 86.2545 65.3937C86.418 65.1893 86.5202 64.944 86.4998 64.6783V57.6676L87.3173 57.688V64.6783C87.3173 64.9032 87.2765 65.1484 87.1947 65.3733C87.0312 65.7821 86.7041 66.1295 86.2749 66.3135C86.0092 66.3748 85.7844 66.4157 85.5595 66.4157Z" fill="white"/>
<path d="M127.379 58.5261C127.195 58.6078 127.031 58.71 126.909 58.8531C126.765 58.9962 126.663 59.1597 126.582 59.3436C126.5 59.5276 126.459 59.732 126.459 59.9364V61.4285H133.756V62.1847H126.459V64.1469C126.459 64.3513 126.5 64.5557 126.582 64.7396C126.663 64.9236 126.765 65.0871 126.909 65.2302C127.052 65.3733 127.215 65.4755 127.379 65.5572C127.563 65.639 127.767 65.6799 127.971 65.6799H133.756V66.4361H127.89C127.583 66.4361 127.297 66.3748 127.011 66.2522C126.479 66.0273 126.03 65.5981 125.805 65.0462C125.682 64.7601 125.621 64.4739 125.621 64.1673V59.9364C125.621 59.6298 125.682 59.3232 125.805 59.0575C126.03 58.5056 126.459 58.0764 127.011 57.8516C127.297 57.7289 127.583 57.6676 127.89 57.6676H133.756V58.4239H127.951C127.767 58.4034 127.563 58.4443 127.379 58.5261Z" fill="white"/>
<path d="M178.784 57.6676C180.031 57.6472 181.032 58.6487 181.053 59.8955C181.053 59.9159 181.053 59.9159 181.053 59.9364V62.2869C181.053 62.5935 180.991 62.9001 180.869 63.1658C180.644 63.7177 180.215 64.1469 179.663 64.3717C179.377 64.4944 179.09 64.5557 178.784 64.5557H174.348C174.083 64.5557 173.817 64.5148 173.572 64.4331C173.327 64.3513 173.102 64.2287 172.918 64.0651V66.4361H172.1V59.9364C172.1 59.3436 172.345 58.7509 172.754 58.3217C172.959 58.1173 173.204 57.9537 173.47 57.8311C173.756 57.7085 174.042 57.6676 174.348 57.6676H178.784ZM180.215 59.9568C180.215 59.7524 180.174 59.548 180.092 59.3641C180.01 59.1801 179.908 59.0166 179.765 58.8735C179.622 58.7304 179.458 58.6283 179.274 58.5465C179.09 58.4647 178.886 58.4239 178.682 58.4239H174.43C174.226 58.4239 174.021 58.4647 173.838 58.5465C173.47 58.71 173.183 58.9962 173.02 59.3641C172.938 59.548 172.897 59.7524 172.897 59.9568V62.2869C172.897 62.4913 172.938 62.6957 173.02 62.8797C173.102 63.0636 173.204 63.2271 173.347 63.3702C173.49 63.5133 173.654 63.6155 173.838 63.6972C174.021 63.779 174.226 63.8199 174.43 63.8199H178.682C178.886 63.8199 179.09 63.779 179.274 63.6972C179.642 63.5337 179.928 63.2476 180.092 62.8797C180.174 62.6957 180.215 62.4913 180.215 62.2869V59.9568Z" fill="white"/>
<path d="M272.56 65.6594V66.4157H268.963C267.716 66.4361 266.714 65.4346 266.694 64.1878C266.694 64.1673 266.694 64.1673 266.694 64.1469V57.6676H267.532V64.1469C267.532 64.3513 267.573 64.5557 267.655 64.7396C267.736 64.9236 267.839 65.0871 267.982 65.2302C268.125 65.3733 268.288 65.4755 268.452 65.5572C268.636 65.639 268.84 65.6799 269.044 65.6799L272.56 65.6594Z" fill="white"/>
<path d="M232.356 64.1469L224.405 67.1106V70.4831L228.84 68.9093L231.497 74.7141L234.195 73.5286L231.722 67.7442L234.44 66.5588L232.356 64.1469Z" fill="white"/>
<path d="M230.373 61.8372L224.405 54.9696V64.0651L230.373 61.8372Z" fill="white"/>
</svg>
